<svg width="17" height="14" viewBox="0 0 17 14" fill="none" xmlns="http://www.w3.org/2000/svg">
<path fill-rule="evenodd" clip-rule="evenodd" d="M3.36117 0H13.4447C15.301 0 16.8058 1.50485 16.8058 3.36117H13.4447C11.5884 3.36117 10.0835 4.86601 10.0835 6.72234C10.0835 8.57866 11.5884 10.0835 13.4447 10.0835L16.8058 10.0835C16.8058 11.9398 15.301 13.4447 13.4447 13.4447H3.36117C1.50485 13.4447 0 11.9398 0 10.0835V3.36117C0 1.50485 1.50485 0 3.36117 0ZM4.30507 2.73952C3.96174 2.6823 3.63704 2.91424 3.57982 3.25756C3.5226 3.60089 3.75453 3.92559 4.09785 3.98281L6.06616 4.31086C6.50061 4.38327 6.94406 4.38327 7.37852 4.31086L9.34682 3.98281C9.69015 3.92559 9.92208 3.60089 9.86486 3.25756C9.80764 2.91424 9.48293 2.6823 9.13961 2.73952L7.1713 3.06757C6.87404 3.11712 6.57063 3.11712 6.27337 3.06757L4.30507 2.73952Z" fill="url(#paint0_linear_1157_2776)"/>
<path fill-rule="evenodd" clip-rule="evenodd" d="M16.8058 8.82307H13.4447C12.2845 8.82307 11.3439 7.88254 11.3439 6.72234C11.3439 5.56214 12.2845 4.62161 13.4447 4.62161H16.8058V8.82307ZM12.8145 6.72234C12.8145 6.37428 13.0966 6.09212 13.4447 6.09212H14.285C14.633 6.09212 14.9152 6.37428 14.9152 6.72234C14.9152 7.0704 14.633 7.35256 14.285 7.35256H13.4447C13.0966 7.35256 12.8145 7.0704 12.8145 6.72234Z" fill="url(#paint1_linear_1157_2776)"/>
<defs>
<linearGradient id="paint0_linear_1157_2776" x1="8.40292" y1="-6.54956e-09" x2="8.40292" y2="13.4447" gradientUnits="userSpaceOnUse">
<stop stop-color="#7456C8"/>
<stop offset="0.365385" stop-color="#D783D8"/>
<stop offset="0.75" stop-color="#FF90A5"/>
<stop offset="1" stop-color="#FF6F5C"/>
</linearGradient>
<linearGradient id="paint1_linear_1157_2776" x1="8.40292" y1="-6.54956e-09" x2="8.40292" y2="13.4447" gradientUnits="userSpaceOnUse">
<stop stop-color="#7456C8"/>
<stop offset="0.365385" stop-color="#D783D8"/>
<stop offset="0.75" stop-color="#FF90A5"/>
<stop offset="1" stop-color="#FF6F5C"/>
</linearGradient>
</defs>
</svg>
