<svg width="17" height="15" viewBox="0 0 17 15" fill="none" xmlns="http://www.w3.org/2000/svg">
<path d="M0 10.4066V0.834019C0 0.3365 0.432634 -0.0475865 0.923964 0.0306438C1.82853 0.17467 3.20687 0.440394 4.16667 0.838092C5.40311 1.35042 6.89474 2.47531 7.71587 3.13674C7.71091 3.16845 7.70833 3.20095 7.70833 3.23405L7.70833 14.3807C6.88564 13.7185 5.39934 12.5989 4.16667 12.0881C3.1377 11.6617 1.6277 11.3871 0.736122 11.2514C0.317125 11.1876 0 10.8304 0 10.4066Z" fill="url(#paint0_linear_902_8690)"/>
<path fill-rule="evenodd" clip-rule="evenodd" d="M8.95833 14.3111C9.69441 13.6434 10.9541 12.5841 12.037 12.0881C12.9856 11.6536 14.867 11.3688 15.9159 11.2364C16.3418 11.1827 16.6667 10.823 16.6667 10.3937V0.818113C16.6667 0.326283 16.2439 -0.0568112 15.7562 0.00695194C14.6853 0.146979 12.9392 0.424851 12.037 0.838092C10.9445 1.3385 9.67206 2.41225 8.93888 3.07874C8.95158 3.12839 8.95833 3.18043 8.95833 3.23405L8.95833 14.3111ZM13.9476 4.66031C14.2751 4.55116 14.4521 4.1972 14.3429 3.86974C14.2338 3.54228 13.8798 3.3653 13.5524 3.47446C12.9685 3.66907 12.2502 4.09162 11.6248 4.5039C10.9853 4.92545 10.3865 5.37449 10.0262 5.66267C9.75669 5.8783 9.71299 6.27161 9.92862 6.54115C10.1443 6.81069 10.5376 6.85439 10.8071 6.63876C11.1413 6.37138 11.7092 5.94542 12.3127 5.54753C12.9304 5.14037 13.5315 4.79902 13.9476 4.66031ZM14.3429 7.20307C14.4521 7.53054 14.2751 7.88449 13.9476 7.99364C13.5315 8.13236 12.9304 8.4737 12.3127 8.88087C11.7092 9.27876 11.1413 9.70472 10.8071 9.97209C10.5376 10.1877 10.1443 10.144 9.92862 9.87448C9.71299 9.60494 9.75669 9.21164 10.0262 8.99601C10.3865 8.70783 10.9853 8.25879 11.6248 7.83723C12.2502 7.42495 12.9685 7.00241 13.5524 6.80779C13.8798 6.69863 14.2338 6.87561 14.3429 7.20307Z" fill="url(#paint1_linear_902_8690)"/>
<defs>
<linearGradient id="paint0_linear_902_8690" x1="8.33334" y1="-7.00553e-09" x2="8.33334" y2="14.3807" gradientUnits="userSpaceOnUse">
<stop stop-color="#7456C8"/>
<stop offset="0.365385" stop-color="#D783D8"/>
<stop offset="0.75" stop-color="#FF90A5"/>
<stop offset="1" stop-color="#FF6F5C"/>
</linearGradient>
<linearGradient id="paint1_linear_902_8690" x1="8.33334" y1="-7.00553e-09" x2="8.33334" y2="14.3807" gradientUnits="userSpaceOnUse">
<stop stop-color="#7456C8"/>
<stop offset="0.365385" stop-color="#D783D8"/>
<stop offset="0.75" stop-color="#FF90A5"/>
<stop offset="1" stop-color="#FF6F5C"/>
</linearGradient>
</defs>
</svg>
