<svg width="94" height="68" viewBox="0 0 94 68" fill="none" xmlns="http://www.w3.org/2000/svg">
<path d="M53.5543 34.025C59.332 34.0251 64.0161 38.7092 64.0162 44.4869V57.0406C64.0162 62.8184 59.3321 67.5025 53.5543 67.5026H41.0006C35.2228 67.5026 30.5387 62.8185 30.5387 57.0406V44.4869C30.5388 38.7092 35.2229 34.025 41.0006 34.025H53.5543ZM54.2516 53.3678C51.8444 53.3679 49.8934 55.3191 49.8932 57.7262V57.7516C49.8932 60.1589 51.8443 62.1109 54.2516 62.111C56.659 62.111 58.611 60.159 58.611 57.7516V57.7262C58.6107 55.319 56.6589 53.3678 54.2516 53.3678ZM79.983 28.4742C81.1556 27.3041 83.0548 27.3059 84.2252 28.4781L92.3541 36.6217C93.5231 37.7929 93.5232 39.6898 92.3541 40.861L84.2252 49.0035C83.0547 50.1757 81.1555 50.1777 79.983 49.0074C78.8106 47.8371 78.8091 45.9379 79.9791 44.7653L85.9928 38.7418L79.9791 32.7174C78.8087 31.5449 78.8108 29.6448 79.983 28.4742ZM40.3033 39.4186C37.896 39.4186 35.9441 41.3696 35.944 43.777V43.8024C35.944 46.2097 37.896 48.1617 40.3033 48.1617C42.7105 48.1615 44.6617 46.2096 44.6617 43.8024V43.777C44.6616 41.3698 42.7105 39.4188 40.3033 39.4186ZM11.941 3.06409C16.0266 -1.02144 22.6504 -1.02144 26.736 3.06409L35.6129 11.941C39.6982 16.0266 39.6984 22.6505 35.6129 26.736L26.736 35.6129C22.6505 39.6982 16.0265 39.6982 11.941 35.6129L3.06409 26.736C-1.02139 22.6505 -1.02129 16.0266 3.06409 11.941L11.941 3.06409ZM22.4293 26.111C20.727 24.4087 17.9666 24.4087 16.2643 26.111L16.2467 26.1285C14.5447 27.8308 14.5448 30.5903 16.2467 32.2926C17.949 33.9949 20.7094 33.9949 22.4117 32.2926L22.4293 32.275C24.1314 30.5728 24.1314 27.8132 22.4293 26.111ZM12.566 16.2467C10.8638 14.5446 8.10426 14.5448 6.40198 16.2467L6.38342 16.2643C4.68117 17.9665 4.68125 20.727 6.38342 22.4293C8.08572 24.1316 10.8462 24.1316 12.5485 22.4293L12.566 22.4117C14.2683 20.7094 14.2683 17.949 12.566 16.2467ZM32.2926 16.2467C30.5904 14.5447 27.8308 14.5447 26.1285 16.2467L26.11 16.2643C24.4078 17.9665 24.4079 20.727 26.11 22.4293C27.8123 24.1316 30.5727 24.1316 32.275 22.4293L32.2926 22.4117C33.9949 20.7094 33.9949 17.949 32.2926 16.2467ZM22.4293 6.3844C20.727 4.6821 17.9666 4.6821 16.2643 6.3844L16.2467 6.40198C14.5446 8.10417 14.5448 10.8638 16.2467 12.566C17.949 14.2683 20.7094 14.2683 22.4117 12.566L22.4293 12.5485C24.1314 10.8462 24.1314 8.08665 22.4293 6.3844Z" fill="url(#paint0_linear_942_7120)"/>
<defs>
<linearGradient id="paint0_linear_942_7120" x1="46.6155" y1="-0.000366244" x2="46.6155" y2="67.5023" gradientUnits="userSpaceOnUse">
<stop stop-color="#7456C8"/>
<stop offset="0.365385" stop-color="#D783D8"/>
<stop offset="0.75" stop-color="#FF90A5"/>
<stop offset="1" stop-color="#FF6F5C"/>
</linearGradient>
</defs>
</svg>
