<svg width="17" height="17" viewBox="0 0 17 17" fill="none" xmlns="http://www.w3.org/2000/svg">
<path d="M1.66698 13.1338C2.88385 13.148 4.75282 13.5794 5.76268 14.2706C6.58459 14.8333 7.11756 16.0901 5.94237 16.5899V16.1192C5.94237 16.0265 5.82164 15.6997 5.77538 15.5997C5.62283 15.2686 5.3305 14.9263 4.94042 14.9053C5.3462 15.4055 5.51135 16.1671 5.30663 16.7842C5.25533 16.8354 4.32166 16.9688 4.28319 16.9327C4.44195 16.2586 4.16368 15.3997 3.36815 15.4053C3.73104 15.8228 3.87016 16.4039 3.68163 16.9327C3.00849 16.8632 2.38522 16.6505 1.75878 16.4112C1.22309 16.2066 0.471979 15.9669 0.178699 15.4483C-0.254542 14.6823 0.157948 13.9144 0.795887 13.4366C1.10039 13.2087 1.27555 13.1293 1.66698 13.1338ZM14.4385 0.241262C14.6577 0.0686626 14.9061 -0.13947 15.1533 0.127981C15.4918 0.494779 15.7356 1.81651 15.7832 2.3272C15.9187 3.77784 15.6823 5.33982 14.7861 6.51958C15.714 7.8569 17.3029 9.28689 16.7471 11.085C15.8806 13.8887 11.5603 14.6998 9.03905 15.126C8.45201 15.2256 7.85477 15.3178 7.26268 15.3594H7.26073C7.11006 14.6071 6.5465 14.0231 5.91405 13.6348L6.41307 13.1172C7.16172 13.2784 7.88999 13.5139 8.60155 13.7911C8.14992 13.1623 7.30429 12.98 6.67284 12.5909L6.48925 11.6534C6.94942 11.4684 7.41718 11.0764 7.67089 10.6485C7.9246 10.2205 7.9764 9.89676 7.43651 9.71587C6.90676 9.53869 5.18449 9.71061 4.76073 10.1124C4.47002 10.3886 4.71973 10.8242 4.94042 11.0655C5.22154 11.3723 5.6524 11.5804 6.05761 11.6631L6.19335 12.628L5.49511 13.3858C4.40247 12.899 3.23464 12.6019 2.03807 12.5069C1.80735 12.4886 1.69919 12.5933 1.57421 12.3702C1.43315 12.1176 1.27301 11.6356 1.25194 11.3497C1.20296 10.6773 1.5614 10.0249 1.79589 9.4229C1.87048 9.41476 1.84116 9.42386 1.8535 9.4649C2.01154 9.99776 2.30881 10.4482 2.76757 10.7647C2.28576 9.7954 2.18378 8.90814 2.4746 7.85845C2.97061 6.06467 4.4804 4.27327 6.25097 3.63286C6.45382 3.55933 6.70127 3.47063 6.916 3.4688L6.60057 4.09673C5.97458 4.28813 5.41948 4.65553 4.97069 5.12505L5.03026 5.15532L6.48632 4.76763C6.42769 5.19609 6.43385 5.69238 6.64452 6.08111C6.74253 5.60152 6.86288 5.1033 7.14452 4.69634C7.89741 4.55977 8.65506 4.75398 9.40429 4.82525C8.97149 4.31319 8.24417 4.12274 7.60253 4.02544C7.57881 4.00307 7.83202 3.7018 7.86034 3.669C7.94105 3.57753 8.26379 3.24534 8.36132 3.22661C9.25799 3.16817 10.1362 3.25099 11.0058 3.46978C11.642 2.83717 12.326 2.25508 12.9805 1.64165C13.4636 1.18853 13.9182 0.651446 14.4385 0.241262ZM15.1377 8.6231C15.0539 9.99163 14.3106 11.2383 13.3076 12.1368L12.3779 12.8204C13.5311 12.7787 14.9031 12.1282 15.3652 11.0206C15.6839 10.2564 15.516 9.33611 15.1377 8.6231ZM9.01659 12.377C8.7578 12.3774 8.76711 12.7942 9.07323 12.7354C9.26009 12.6993 9.24284 12.377 9.01659 12.377ZM8.01561 12.4522C8.2959 12.4367 8.06712 12.0252 7.89354 12.1993C7.80591 12.2875 7.85378 12.4612 8.01561 12.4522ZM4.87499 11.9698C4.6834 12.0272 4.68604 12.4022 4.95702 12.42C5.3123 12.4431 5.26378 11.8542 4.87499 11.9698ZM8.64354 11.792C8.78964 11.5952 8.4866 11.4361 8.35057 11.5713C8.19187 11.7294 8.46778 12.0291 8.64354 11.792ZM4.06835 11.8506C4.54954 11.8954 4.2962 11.1423 3.94921 11.459C3.81961 11.5773 3.85775 11.8314 4.06835 11.8506ZM13.4072 6.68169C13.3536 6.67484 13.3875 6.73794 13.3926 6.76763C13.4668 7.22669 13.4976 7.59474 13.4316 8.06157C13.2222 9.546 12.0181 10.6088 10.8613 11.4209C12.4295 11.135 14.4328 10.1803 14.1474 8.26958C14.0585 7.67514 13.7199 7.17665 13.4072 6.68169ZM6.18358 6.68267C6.09113 6.53477 5.89288 6.48687 5.74315 6.58208L4.85448 7.56646C4.5916 7.37781 3.98658 6.39015 3.62889 6.89947C3.31988 7.34015 4.15916 7.76559 4.33593 8.08892L3.48632 9.04009C3.31779 9.3589 3.61369 9.6821 3.94432 9.4981C4.07714 9.4241 4.40133 9.04392 4.52636 8.90825C4.61743 8.80874 4.73655 8.67827 4.79882 8.56646C5.04663 8.73179 5.45278 9.34622 5.75487 9.33892C5.99067 9.33334 6.16938 9.05057 6.05858 8.83501L5.31444 8.01275C5.52237 7.76106 5.77604 7.52796 5.98534 7.2813C6.12953 7.11147 6.3297 6.91683 6.18358 6.68267ZM11.1875 6.56646C11.3679 6.25318 11.1098 5.93508 10.7646 6.08599C10.4633 6.39112 10.1263 6.70328 9.84374 7.02349C9.8219 7.04801 9.8019 7.07499 9.80175 7.10943C9.74773 7.14732 9.07254 6.2725 8.81444 6.25396C8.55659 6.23614 8.37642 6.49271 8.44237 6.74029C8.49224 6.92433 8.91606 7.29201 9.06835 7.44243H9.06932C9.11879 7.49131 9.20447 7.52952 9.24706 7.59575L9.23827 7.67193C9.05825 7.94098 8.40548 8.42805 8.33495 8.7149C8.26014 9.01942 8.6417 9.23339 8.88573 9.03521L9.75975 8.10943C10.0579 8.30721 10.6611 9.33796 11.0449 8.82134C11.2546 8.53912 11.0002 8.33822 10.8183 8.13775C10.6425 7.9441 10.4384 7.77337 10.2607 7.58111L11.1875 6.56646ZM1.16796 1.72954C1.22886 1.37605 1.39037 1.39075 1.68065 1.52544C2.11803 1.72825 2.68133 2.19369 3.11229 2.46685C3.68789 2.83129 4.28164 3.17153 4.85448 3.54009L3.75389 4.45318C3.43432 3.80383 3.00109 3.12073 2.45311 2.64068C2.34274 2.54429 2.10061 2.34341 1.97557 2.28814C1.49737 2.07798 1.65223 2.99094 1.68847 3.2315C1.82309 4.12848 2.21519 5.01158 2.61815 5.8145L2.30956 6.33794C2.25552 6.11503 2.11283 5.91082 2.01757 5.70025C1.56147 4.69479 0.98122 2.81516 1.16796 1.72954ZM14.5996 1.00396C14.376 1.05542 13.7111 1.9454 13.5664 2.17193C13.233 2.69449 12.8578 3.47805 13.0547 4.10552C13.1333 4.35543 13.6496 4.78794 13.8506 5.02447C14.0355 5.24229 14.2032 5.47387 14.3652 5.70904C14.5226 5.56753 14.6469 5.42535 14.7558 5.24322C15.3026 4.32739 15.3916 2.93991 15.2295 1.90532C15.175 1.5568 15.1052 0.888391 14.5996 1.00396Z" fill="url(#paint0_linear_942_7139)"/>
<defs>
<linearGradient id="paint0_linear_942_7139" x1="8.43108" y1="-8.25171e-09" x2="8.43108" y2="16.9388" gradientUnits="userSpaceOnUse">
<stop stop-color="#7456C8"/>
<stop offset="0.365385" stop-color="#D783D8"/>
<stop offset="0.75" stop-color="#FF90A5"/>
<stop offset="1" stop-color="#FF6F5C"/>
</linearGradient>
</defs>
</svg>
