<svg width="17" height="15" viewBox="0 0 17 15" fill="none" xmlns="http://www.w3.org/2000/svg">
<path d="M7.5 1.25C7.5 0.559644 8.05964 0 8.75 0H10.4167C11.107 0 11.6667 0.559644 11.6667 1.25V13.75C11.6667 14.4404 11.107 15 10.4167 15H8.75C8.05964 15 7.5 14.4404 7.5 13.75V1.25Z" fill="url(#paint0_linear_902_8687)"/>
<path d="M3.27814 0.926786C3.45682 0.259954 4.14224 -0.135774 4.80907 0.042903L6.41895 0.474268C7.08578 0.652945 7.48151 1.33837 7.30283 2.0052L4.06759 14.0793C3.88892 14.7461 3.2035 15.1418 2.53666 14.9632L0.926786 14.5318C0.259954 14.3531 -0.135774 13.6677 0.042903 13.0009L3.27814 0.926786Z" fill="url(#paint1_linear_902_8687)"/>
<path d="M13.75 0C13.0596 0 12.5 0.559644 12.5 1.25V13.75C12.5 14.4404 13.0596 15 13.75 15H15.4167C16.107 15 16.6667 14.4404 16.6667 13.75V1.25C16.6667 0.559644 16.107 0 15.4167 0H13.75Z" fill="url(#paint2_linear_902_8687)"/>
<defs>
<linearGradient id="paint0_linear_902_8687" x1="8.33334" y1="-7.31019e-09" x2="8.33334" y2="15.0061" gradientUnits="userSpaceOnUse">
<stop stop-color="#7456C8"/>
<stop offset="0.365385" stop-color="#D783D8"/>
<stop offset="0.75" stop-color="#FF90A5"/>
<stop offset="1" stop-color="#FF6F5C"/>
</linearGradient>
<linearGradient id="paint1_linear_902_8687" x1="8.33334" y1="-7.31019e-09" x2="8.33334" y2="15.0061" gradientUnits="userSpaceOnUse">
<stop stop-color="#7456C8"/>
<stop offset="0.365385" stop-color="#D783D8"/>
<stop offset="0.75" stop-color="#FF90A5"/>
<stop offset="1" stop-color="#FF6F5C"/>
</linearGradient>
<linearGradient id="paint2_linear_902_8687" x1="8.33334" y1="-7.31019e-09" x2="8.33334" y2="15.0061" gradientUnits="userSpaceOnUse">
<stop stop-color="#7456C8"/>
<stop offset="0.365385" stop-color="#D783D8"/>
<stop offset="0.75" stop-color="#FF90A5"/>
<stop offset="1" stop-color="#FF6F5C"/>
</linearGradient>
</defs>
</svg>
