<svg width="18" height="16" viewBox="0 0 18 16" fill="none" xmlns="http://www.w3.org/2000/svg">
<path d="M11.0317 0.0481288C10.688 0.185647 10.5208 0.57584 10.6583 0.91965C10.8474 1.39263 10.8347 1.65617 10.7954 1.79905C10.7571 1.93859 10.6659 2.06511 10.4802 2.21109C10.3401 2.32121 10.2045 2.40253 10.04 2.50108C9.95122 2.55432 9.85397 2.6126 9.74315 2.68315C9.48704 2.84619 9.11318 3.1041 8.92202 3.52406C8.76862 3.86106 8.91735 4.25865 9.25421 4.41211C9.59108 4.56557 9.98852 4.41678 10.1419 4.07978C10.1548 4.05159 10.2132 3.97337 10.4628 3.81446C10.5126 3.78274 10.5751 3.74512 10.6453 3.70286C10.8425 3.58418 11.1005 3.42895 11.3085 3.26539C11.6207 3.01995 11.9459 2.67138 12.088 2.15434C12.2291 1.64063 12.1605 1.06609 11.9029 0.421654C11.7654 0.0778443 11.3753 -0.0893888 11.0317 0.0481288Z" fill="url(#paint0_linear_1157_9455)"/>
<path d="M16.2975 2.44814C16.6149 2.63865 17.0266 2.53567 17.217 2.21814C17.4074 1.90061 17.3045 1.48877 16.9871 1.29827C16.2687 0.867121 15.5552 0.802238 14.8827 1.03944C14.2542 1.26108 13.7257 1.72441 13.2793 2.21253C12.8684 2.66177 12.4749 3.19229 12.106 3.6897L12 3.83247C11.5883 4.38635 11.2057 4.8886 10.815 5.27864C10.553 5.54021 10.5526 5.96473 10.8141 6.22683C11.0755 6.48893 11.4999 6.48936 11.7619 6.22779C12.2329 5.75753 12.671 5.17701 13.0757 4.63256L13.1753 4.49835C13.5541 3.98805 13.9065 3.51325 14.2682 3.1177C14.6656 2.68327 15.0127 2.4154 15.3283 2.30409C15.5998 2.20835 15.8987 2.20879 16.2975 2.44814Z" fill="url(#paint1_linear_1157_9455)"/>
<path d="M8.01104 4.01305C7.37617 3.19638 6.09755 3.1678 5.47867 4.06525C4.42459 5.59379 2.40972 8.60937 1.15066 11.0991C0.834721 11.7239 0.560537 12.3268 0.360122 12.8728C0.163479 13.4085 0.0209029 13.9338 0.00203566 14.3899C-0.0161348 14.8292 0.0795858 15.4072 0.605406 15.7284C1.07962 16.0181 1.6687 15.9398 2.1992 15.772C5.68007 14.6704 10.3168 12.6496 12.5823 11.6319C13.6875 11.1354 13.8037 9.66169 12.8938 8.94528C12.1175 8.33407 11.127 7.51469 10.3696 6.757C9.53745 5.92457 8.63216 4.81205 8.01104 4.01305Z" fill="url(#paint2_linear_1157_9455)"/>
<path d="M14.2651 8.20096C14.4263 7.92466 14.6319 7.78932 14.7963 7.75518C14.932 7.72697 15.1472 7.7441 15.424 8.02101C15.6857 8.28285 16.1101 8.28285 16.3718 8.02101C16.6335 7.75917 16.6335 7.33465 16.3718 7.07282C15.8306 6.5314 15.1728 6.3074 14.5237 6.44224C13.9032 6.57114 13.412 7.00299 13.1074 7.52499C12.9209 7.84479 13.0287 8.25536 13.3484 8.44203C13.6681 8.62869 14.0785 8.52076 14.2651 8.20096Z" fill="url(#paint3_linear_1157_9455)"/>
<path d="M7.70601 2.01153C8.19954 2.01153 8.59963 1.61129 8.59963 1.11757C8.59963 0.623843 8.19954 0.223601 7.70601 0.223601C7.21247 0.223601 6.81239 0.623843 6.81239 1.11757C6.81239 1.61129 7.21247 2.01153 7.70601 2.01153Z" fill="url(#paint4_linear_1157_9455)"/>
<path d="M17.5359 4.69343C17.5359 5.18715 17.1358 5.58739 16.6422 5.58739C16.1487 5.58739 15.7486 5.18715 15.7486 4.69343C15.7486 4.1997 16.1487 3.79946 16.6422 3.79946C17.1358 3.79946 17.5359 4.1997 17.5359 4.69343Z" fill="url(#paint5_linear_1157_9455)"/>
<defs>
<linearGradient id="paint0_linear_1157_9455" x1="8.76793" y1="-7.7564e-09" x2="8.76793" y2="15.922" gradientUnits="userSpaceOnUse">
<stop stop-color="#7456C8"/>
<stop offset="0.365385" stop-color="#D783D8"/>
<stop offset="0.75" stop-color="#FF90A5"/>
<stop offset="1" stop-color="#FF6F5C"/>
</linearGradient>
<linearGradient id="paint1_linear_1157_9455" x1="8.76793" y1="-7.7564e-09" x2="8.76793" y2="15.922" gradientUnits="userSpaceOnUse">
<stop stop-color="#7456C8"/>
<stop offset="0.365385" stop-color="#D783D8"/>
<stop offset="0.75" stop-color="#FF90A5"/>
<stop offset="1" stop-color="#FF6F5C"/>
</linearGradient>
<linearGradient id="paint2_linear_1157_9455" x1="8.76793" y1="-7.7564e-09" x2="8.76793" y2="15.922" gradientUnits="userSpaceOnUse">
<stop stop-color="#7456C8"/>
<stop offset="0.365385" stop-color="#D783D8"/>
<stop offset="0.75" stop-color="#FF90A5"/>
<stop offset="1" stop-color="#FF6F5C"/>
</linearGradient>
<linearGradient id="paint3_linear_1157_9455" x1="8.76793" y1="-7.7564e-09" x2="8.76793" y2="15.922" gradientUnits="userSpaceOnUse">
<stop stop-color="#7456C8"/>
<stop offset="0.365385" stop-color="#D783D8"/>
<stop offset="0.75" stop-color="#FF90A5"/>
<stop offset="1" stop-color="#FF6F5C"/>
</linearGradient>
<linearGradient id="paint4_linear_1157_9455" x1="8.76793" y1="-7.7564e-09" x2="8.76793" y2="15.922" gradientUnits="userSpaceOnUse">
<stop stop-color="#7456C8"/>
<stop offset="0.365385" stop-color="#D783D8"/>
<stop offset="0.75" stop-color="#FF90A5"/>
<stop offset="1" stop-color="#FF6F5C"/>
</linearGradient>
<linearGradient id="paint5_linear_1157_9455" x1="8.76793" y1="-7.7564e-09" x2="8.76793" y2="15.922" gradientUnits="userSpaceOnUse">
<stop stop-color="#7456C8"/>
<stop offset="0.365385" stop-color="#D783D8"/>
<stop offset="0.75" stop-color="#FF90A5"/>
<stop offset="1" stop-color="#FF6F5C"/>
</linearGradient>
</defs>
</svg>
