<svg width="17" height="20" viewBox="0 0 17 20" fill="none" xmlns="http://www.w3.org/2000/svg">
<path fill-rule="evenodd" clip-rule="evenodd" d="M4.3984 6.53708C4.90678 8.35049 5.01472 8.73551 5.93923 9.66002C7.95593 11.6767 11.7347 8.0668 10.0837 6.0501C7.7015 3.02505 11.7347 0 11.7347 0C11.7347 0 12.2393 3.52923 15.2867 6.0501C17.7852 9.57933 18.008 16.0882 11.7347 18.6545C3.1074 22.1837 -4.90275 11.0919 3.66822 4.0334C3.99484 5.09762 4.221 5.90431 4.3984 6.53708ZM6.55024 14.0602C7.21689 14.463 8.37242 14.6402 9.43906 13.0935C10.7723 11.1602 11.2167 16.7185 8.32796 16.7185C6.77244 16.7185 6.17988 15.0269 6.55024 14.0602Z" fill="#FF8274"/>
</svg>
