<svg width="17" height="17" viewBox="0 0 17 17" fill="none" xmlns="http://www.w3.org/2000/svg">
<path d="M3.33333 0H5C6.84095 0 8.33333 1.49238 8.33333 3.33333V4.16667C8.33333 6.00762 6.84095 7.5 5 7.5H3.33333C1.49238 7.5 0 6.00762 0 4.16667V3.33333C0 1.49238 1.49238 0 3.33333 0Z" fill="url(#paint0_linear_1143_9765)"/>
<path d="M12.5 0H13.3333C15.1743 0 16.6667 1.49238 16.6667 3.33333V5C16.6667 6.84095 15.1743 8.33333 13.3333 8.33333H12.5C10.6591 8.33333 9.16667 6.84095 9.16667 5V3.33333C9.16667 1.49238 10.6591 0 12.5 0Z" fill="url(#paint1_linear_1143_9765)"/>
<path d="M11.6667 9.16667C9.82572 9.16667 8.33333 10.6591 8.33333 12.5V13.3333C8.33333 15.1743 9.82572 16.6667 11.6667 16.6667H13.3333C15.1743 16.6667 16.6667 15.1743 16.6667 13.3333V12.5C16.6667 10.6591 15.1743 9.16667 13.3333 9.16667H11.6667Z" fill="url(#paint2_linear_1143_9765)"/>
<path d="M3.33333 8.33333H4.16667C6.00762 8.33333 7.5 9.82572 7.5 11.6667V13.3333C7.5 15.1743 6.00762 16.6667 4.16667 16.6667H3.33333C1.49238 16.6667 0 15.1743 0 13.3333V11.6667C0 9.82572 1.49238 8.33333 3.33333 8.33333Z" fill="url(#paint3_linear_1143_9765)"/>
<defs>
<linearGradient id="paint0_linear_1143_9765" x1="8.33334" y1="-8.11915e-09" x2="8.33334" y2="16.6667" gradientUnits="userSpaceOnUse">
<stop stop-color="#7456C8"/>
<stop offset="0.365385" stop-color="#D783D8"/>
<stop offset="0.75" stop-color="#FF90A5"/>
<stop offset="1" stop-color="#FF6F5C"/>
</linearGradient>
<linearGradient id="paint1_linear_1143_9765" x1="8.33334" y1="-8.11915e-09" x2="8.33334" y2="16.6667" gradientUnits="userSpaceOnUse">
<stop stop-color="#7456C8"/>
<stop offset="0.365385" stop-color="#D783D8"/>
<stop offset="0.75" stop-color="#FF90A5"/>
<stop offset="1" stop-color="#FF6F5C"/>
</linearGradient>
<linearGradient id="paint2_linear_1143_9765" x1="8.33334" y1="-8.11915e-09" x2="8.33334" y2="16.6667" gradientUnits="userSpaceOnUse">
<stop stop-color="#7456C8"/>
<stop offset="0.365385" stop-color="#D783D8"/>
<stop offset="0.75" stop-color="#FF90A5"/>
<stop offset="1" stop-color="#FF6F5C"/>
</linearGradient>
<linearGradient id="paint3_linear_1143_9765" x1="8.33334" y1="-8.11915e-09" x2="8.33334" y2="16.6667" gradientUnits="userSpaceOnUse">
<stop stop-color="#7456C8"/>
<stop offset="0.365385" stop-color="#D783D8"/>
<stop offset="0.75" stop-color="#FF90A5"/>
<stop offset="1" stop-color="#FF6F5C"/>
</linearGradient>
</defs>
</svg>
