<svg width="17" height="17" viewBox="0 0 17 17" fill="none" xmlns="http://www.w3.org/2000/svg">
<path d="M2.96465 0.833333C2.96465 1.29357 2.59155 1.66667 2.13131 1.66667C1.9805 1.66667 1.83904 1.6266 1.71701 1.55654C1.40483 1.71642 1.21263 2.05174 1.2567 2.41429C1.48028 4.25368 1.93357 7.11864 2.70578 8.92047C3.08156 9.79729 3.6083 10.3093 4.19852 10.6136C4.80341 10.9254 5.52002 11.0417 6.29798 11.0417C7.08306 11.0417 7.82345 10.9327 8.43891 10.6244C9.03463 10.326 9.55115 9.82266 9.87944 8.94722C10.6492 6.89444 11.1006 4.15369 11.3273 2.40734C11.3738 2.04928 11.186 1.7166 10.8779 1.55713C10.7561 1.62682 10.615 1.66667 10.4646 1.66667C10.0044 1.66667 9.63131 1.29357 9.63131 0.833333C9.63131 0.373096 10.0044 0 10.4646 0C10.7253 0 10.958 0.119664 11.1108 0.307055C12.0463 0.601245 12.7033 1.51714 12.5669 2.56828C12.3386 4.32698 11.8735 7.18966 11.0499 9.38612C10.6116 10.5548 9.87813 11.3015 8.99881 11.742C8.26688 12.1087 7.46236 12.2494 6.69527 12.2832C6.39417 12.9405 6.24428 13.467 6.25822 13.898C6.27236 14.3351 6.45724 14.7439 7.06134 15.1466C7.1864 15.23 7.32012 15.2698 7.47043 15.2756C7.85059 15.2905 8.24059 15.1235 8.68853 14.7686C9.09067 14.4499 9.47236 14.036 9.88649 13.5869C9.93993 13.529 9.99397 13.4704 10.0486 13.4114C10.4997 12.9243 11.0119 12.387 11.5745 12.0567C12.1778 11.7026 12.8937 11.5574 13.6608 11.941C13.6711 11.9461 13.6811 11.9515 13.691 11.9571C13.9586 11.7738 14.2825 11.6667 14.6313 11.6667C15.5518 11.6667 16.298 12.4129 16.298 13.3333C16.298 14.2538 15.5518 15 14.6313 15C13.7108 15 12.9646 14.2538 12.9646 13.3333C12.9646 13.2237 12.9752 13.1165 12.9954 13.0128C12.7414 12.9197 12.5041 12.9606 12.2073 13.1348C11.8289 13.3568 11.4357 13.7533 10.9657 14.2607C10.9138 14.3168 10.861 14.3742 10.8073 14.4325C10.403 14.8717 9.94957 15.3642 9.46483 15.7483C8.90947 16.1883 8.22946 16.5562 7.42178 16.5247C7.06309 16.5107 6.70187 16.4093 6.36796 16.1867C5.478 15.5934 5.03789 14.8355 5.00887 13.9384C4.99089 13.3822 5.13344 12.8091 5.35673 12.2366C4.76699 12.1635 4.17729 12.009 3.62575 11.7247C2.76429 11.2806 2.04103 10.5426 1.55685 9.41287C0.705589 7.42659 0.238247 4.39492 0.0158326 2.56512C-0.112013 1.51334 0.548539 0.599465 1.48565 0.306447C1.63847 0.119407 1.87095 0 2.13131 0C2.59155 0 2.96465 0.373096 2.96465 0.833333Z" fill="url(#paint0_linear_902_8683)"/>
<defs>
<linearGradient id="paint0_linear_902_8683" x1="8.14899" y1="-8.05091e-09" x2="8.14899" y2="16.5266" gradientUnits="userSpaceOnUse">
<stop stop-color="#7456C8"/>
<stop offset="0.365385" stop-color="#D783D8"/>
<stop offset="0.75" stop-color="#FF90A5"/>
<stop offset="1" stop-color="#FF6F5C"/>
</linearGradient>
</defs>
</svg>
