<svg width="24" height="24" viewBox="0 0 24 24" fill="none" xmlns="http://www.w3.org/2000/svg">
<g clip-path="url(#clip0_833_1696)">
<path d="M13.9829 4.33955C13.9829 5.67102 12.9035 6.75039 11.572 6.75039C10.2406 6.75039 9.16119 5.67102 9.16119 4.33955C9.16119 3.00808 10.2406 1.92871 11.572 1.92871C12.9035 1.92871 13.9829 3.00808 13.9829 4.33955Z" stroke="#A09CAB" stroke-width="2"/>
<path d="M20.251 16.3937L19.1346 16.0176C18.9155 15.9438 18.7071 15.8409 18.515 15.7114L18.4174 15.6457C17.7555 15.1999 17.358 14.4493 17.358 13.6455C17.358 13.2955 17.3207 12.9531 17.2496 12.6226M2.89301 16.3937L4.00942 16.0176C4.22849 15.9438 4.43687 15.8409 4.62902 15.7114L4.72664 15.6457C5.38847 15.1999 5.78601 14.4493 5.78601 13.6455C5.78601 11.2953 7.46755 9.28957 9.76177 8.9032L10.6208 8.75854C11.0899 8.67903 12.0542 8.67889 12.5232 8.75854L13.3823 8.9032C13.7615 8.96707 14.124 9.0752 14.465 9.22184" stroke="#A09CAB" stroke-width="2" stroke-linecap="round" stroke-linejoin="round"/>
<path d="M9.16121 15.4293L8.26967 16.6181C8.12738 16.8077 8.05623 16.9026 7.97637 16.9861C7.77871 17.1928 7.53757 17.3529 7.27042 17.4548C7.16249 17.4961 7.04743 17.5248 6.81737 17.5823L5.08792 18.0147C4.36471 18.1955 3.85736 18.8453 3.85736 19.5907C3.85736 20.488 4.58471 21.2153 5.48194 21.2153H6.14131C7.78858 21.2153 9.3914 20.6811 10.7093 19.6927L12.5364 18.3223M13.9829 15.4293L14.6837 16.3637C15.0148 16.8053 15.1805 17.0261 15.3954 17.1892C15.4601 17.2383 15.5277 17.2833 15.598 17.3238C15.8319 17.4586 16.0996 17.5256 16.6351 17.6594L18.0561 18.0147C18.7794 18.1955 19.2867 18.8453 19.2867 19.5907C19.2867 20.488 18.5594 21.2153 17.6621 21.2153H16.7579C16.2156 21.2153 15.9445 21.2153 15.6757 21.2003C14.8815 21.1559 14.0959 21.0135 13.3368 20.7762C13.0798 20.6958 12.826 20.6007 12.3182 20.4103L10.6077 19.7688" stroke="#A09CAB" stroke-width="2" stroke-linecap="round" stroke-linejoin="round"/>
</g>
<defs>
<clipPath id="clip0_833_1696">
<rect width="23.1441" height="23.1441" fill="white"/>
</clipPath>
</defs>
</svg>
