<svg width="24" height="24" viewBox="0 0 24 24" fill="none" xmlns="http://www.w3.org/2000/svg">
<g clip-path="url(#clip0_833_1692)">
<path d="M11.572 11.5721L8.71979 14.3965C5.90153 17.1874 4.4924 18.5828 4.88689 19.7868C4.92081 19.8902 4.96292 19.9909 5.01284 20.0878C5.59357 21.2154 7.58638 21.2154 11.572 21.2154C15.5576 21.2154 17.5504 21.2154 18.1311 20.0878C18.1811 19.9909 18.2232 19.8902 18.2571 19.7868C18.4791 19.1093 18.13 18.3712 17.2802 17.3581M11.572 11.5721L14.4242 14.3965M11.572 11.5721L14.4242 8.74759C17.2425 5.95674 18.6516 4.56132 18.2571 3.35736C18.2232 3.25387 18.1811 3.1532 18.1311 3.05627C17.5504 1.92871 15.5576 1.92871 11.572 1.92871C7.58638 1.92871 5.59357 1.92871 5.01284 3.05627C4.96292 3.1532 4.92081 3.25387 4.88689 3.35736C4.66492 4.03481 5.01399 4.77287 5.86384 5.78605M11.572 11.5721L8.71979 8.74759" stroke="#A09CAB" stroke-width="2" stroke-linecap="round"/>
<path d="M9.64337 5.30383H13.5007" stroke="#A09CAB" stroke-width="2" stroke-linecap="round"/>
<path d="M9.64337 17.8402H13.5007" stroke="#A09CAB" stroke-width="2" stroke-linecap="round"/>
</g>
<defs>
<clipPath id="clip0_833_1692">
<rect width="23.1441" height="23.1441" fill="white"/>
</clipPath>
</defs>
</svg>
