<?xml version="1.0" encoding="UTF-8"?>
<svg id="Layer_1" data-name="Layer 1" xmlns="http://www.w3.org/2000/svg" viewBox="0 0 588.89 593.19">
  <defs>
    <style>
      .cls-1 {
        fill: #f2f2f2;
      }
    </style>
  </defs>
  <path class="cls-1" d="M253.6,537.88c-5.26-26.35-24.93-46.8-47.03-60.4l17.43-18.13c26.15,5.64,51.59,13.9,76.45,23.61-15.77-22.02-45.32-28.41-67.38-42.04l-6.43-32.84c16.07-6.48,32.41-20.21,41.27-35.19s10.69-26.32-8.18-32.65c-18.51-6.21-78.68-.18-93.46,13.9-10.16,9.67-1.41,24.92,6.3,33.36,9.82,10.75,24.86,18.04,39.02,20.94l4.72,33.79-24.36,26.54c-38.16-17.05-78.96-27.47-120.75-30.79-8.06-.64-11.82,3.02-16.18-4.8-4.93-8.84-10.54-25.7-11.27-35.72-1.71-23.55,10.8-46.4,18.98-67.49,2.62-.29,1.58.03,2.01,1.47,5.52,18.67,15.91,34.44,31.94,45.53-16.83-33.95-20.39-65.01-10.24-101.76,17.33-62.81,70.05-125.56,131.88-147.98,7.09-2.57,15.72-5.69,23.22-5.76l-11,21.99c-21.86,6.71-41.26,19.58-56.93,36.03l2.08,1.07,50.87-13.58c-2.04,15.01-1.86,32.37,5.51,45.99,3.43-16.8,7.65-34.23,17.48-48.49,26.3-4.79,52.75,2,78.92,4.49-15.12-17.93-40.51-24.59-62.93-27.99-.88-.74,8.01-11.33,9.01-12.47,2.82-3.2,14.07-14.85,17.48-15.5,31.32-2.05,61.98.85,92.36,8.51,22.22-22.16,46.11-42.54,68.97-64.01,16.88-15.86,32.75-34.66,50.92-49.03,7.66-6.05,16.35-13.36,24.98-3.98,11.82,12.85,20.31,59.12,21.98,77,4.73,50.8-3.52,105.49-34.83,146.81,32.4,46.83,87.93,96.92,68.51,159.9-30.27,98.19-181.17,126.57-269.23,141.5-20.51,3.48-41.36,6.74-62.05,8.19ZM509.94,35.19c-7.81,1.79-31.04,32.94-36.09,40.87-11.64,18.3-24.74,45.73-17.87,67.71,2.74,8.75,20.76,23.89,27.79,32.18,6.47,7.63,12.3,15.76,17.96,24,5.5-4.96,9.86-9.93,13.66-16.31,19.1-32.07,22.2-80.67,16.54-116.9-1.91-12.21-4.33-35.61-21.99-31.56ZM316.78,260.63c1.72,1.71,4.71,3.05,6.19,5.38l-.28,2.67c-6.29,9.42-29.11,26.46-31.58,36.5-2.62,10.67,10.71,18.17,19.25,11.23l30.54-32.41c10.42,6.92,31.48,43.01,44.89,24.92,7.32-9.88-1.56-16.93-7.92-23.95-6.14-6.78-13.28-12.75-19.48-19.49l32.39-35.55c6.3-10.97-2.74-22.13-14.8-16.82-10.53,10.69-22.27,21.62-32.14,32.84-.76.87-1.47,1.81-1.47,3.03-1.88,1.33-25.5-29.34-34.5-29.96s-15.28,8.33-12.97,17c1.72,6.44,16.56,19.35,21.86,24.61ZM167.61,299.98c8.65,5.78,22.85,27.3,33.4,27.05,8.24-.19,14.48-10.08,10.61-17.63l-25.98-28.79c7.26-8.81,16.11-16.99,23.42-25.62,5.04-5.95,12.05-12.76,6.93-20.97-3.23-5.19-10.15-6.85-15.39-3.5l-31.03,34.46c-9.18-6.6-30.3-41.19-42.79-23.35-10.81,15.44,18.53,30.33,24.69,41.66l-29.7,33.32c-5.89,11.16,4.46,22.48,16.01,16.03,4.64-2.59,15.97-15.89,20.33-20.64,3.19-3.48,7.31-8.1,9.49-12.01ZM379.37,399.97c54.77-10.02,124.72-43.44,114.75-110.35-3.1-20.83-14.93-38.29-25.85-55.63-1.87-.24-.7,1.98-.53,3.03,2.59,16.07,3.68,28.95,1.38,45.3-7.31,51.99-49.33,89.22-89.74,117.66ZM432.32,448.97c40.27-1.45,88.21-24.24,104.35-63.02,11.14-26.76,5.25-59-7.96-83.96-2.92,47.93-28.88,91.56-63.9,123.02l-32.49,23.96ZM137.93,401.3c-4.52,4.14-3.18,13.03,4.18,13.71,16.81,1.56,7.95-24.82-4.18-13.71ZM291.69,405.22c-5.56,5.53,4.08,16.04,10.22,7.73,5.1-6.89-5.47-12.46-10.22-7.73ZM170.29,419.19c-6.7,2-6.63,15.13,2.85,15.75,12.42.82,10.73-19.8-2.85-15.75ZM275.72,427.22c-3.07,3.09-1.4,9.17,4.25,8.85,9.79-.55,1.81-14.94-4.25-8.85ZM314.94,433.42c-9.06,0-8.73,14.62,1.97,12.55,6.53-1.26,5.93-12.55-1.97-12.55Z"/>
  <path class="cls-1" d="M207.55,580.98v-16.5c0-3.25-4.21-14.67-5.82-18.17-5.32-11.59-15.52-23.58-29.14-24.32,14.17,17.52,19.92,44.16,12.77,65.77-1.79,1.79-34.39,6.48-35.74,5.22,5.55-23.61-4.17-53.72-31.97-53.5,12.69,14.62,17.57,34.98,10.97,53.51-23.51-2.43-45.29-9.88-67.17-18.26-18.72-7.16-44.96-15.57-55.21-33.73-15.14-26.82-.7-53.7,21.58-70.43,10.63-7.98,16.74-10.78,30.43-10.62,42.5.5,107.76,15.62,143.03,39.82,28.72,19.71,47.34,63.73,6.27,81.22Z"/>
  <path class="cls-1" d="M169.58,124l-38.45,31.96c-11.17-22.74-26.3-46.68-45.44-63.49-3.85-3.38-12.28-10.4-16.65-12.33-16.71-7.37-11.31,24.64-10.05,33.05,4.71,31.41,18.41,62.33,32.49,90.46l-10.8,18.32c-1.88-7.81-6.84-14.94-10.18-22.32-15.93-35.2-36.22-101.04-29.69-139.07,2.13-12.38,7.77-11.87,17.92-7.15,15.28,7.11,34.94,23.4,49.99,32.96,20.11,12.76,40.83,24.7,60.85,37.6Z"/>
</svg>