<svg width="211" height="53" viewBox="0 0 211 53" fill="none" xmlns="http://www.w3.org/2000/svg">
<g clip-path="url(#clip0_66_1399)">
<path d="M20.6147 47.4712C20.1869 45.3149 18.5876 43.6404 16.7919 42.5275L18.2092 41.0442C20.3352 41.5063 22.4026 42.1819 24.4233 42.9766C23.1412 41.1738 20.7396 40.6514 18.9465 39.536L18.4238 36.8481C19.7305 36.3179 21.0581 35.1946 21.7785 33.9678C22.4989 32.7411 22.6471 31.8141 21.114 31.2957C19.6096 30.7877 14.7179 31.2813 13.5165 32.4334C12.6908 33.2255 13.4021 34.4732 14.0288 35.1645C14.8272 36.0443 16.0494 36.6413 17.2002 36.8782L17.5838 39.6433L15.6034 41.8153C12.501 40.4197 9.18522 39.5674 5.78758 39.2951C5.13223 39.2427 4.82666 39.5425 4.47169 38.9023C4.0712 38.1783 3.6148 36.7984 3.55498 35.9788C3.41585 34.0516 4.43268 32.1807 5.09842 30.4552C5.31167 30.4316 5.22715 30.4578 5.26226 30.5756C5.71086 32.1035 6.55604 33.3944 7.85893 34.3017C6.49103 31.5235 6.20107 28.981 7.02675 25.9724C8.43496 20.8311 12.7207 15.6963 17.7476 13.8608C18.3236 13.65 19.0258 13.3947 19.6356 13.3894L18.741 15.1896C16.9635 15.7382 15.3876 16.7921 14.1133 18.138L14.2823 18.2257L18.4173 17.1142C18.2508 18.3422 18.2664 19.7641 18.8646 20.8782C19.1428 19.5035 19.4861 18.0765 20.2858 16.9099C22.4234 16.5185 24.5741 17.0736 26.7014 17.2778C25.4726 15.8102 23.4077 15.2656 21.586 14.9867C21.5145 14.9265 22.2375 14.0598 22.3181 13.9655C22.547 13.7037 23.4624 12.7505 23.7393 12.6969C26.2853 12.5293 28.7779 12.7663 31.2472 13.3934C33.0533 11.5801 34.9959 9.91214 36.854 8.15386C38.2258 6.85511 39.5157 5.31677 40.9928 4.14108C41.6157 3.6462 42.3217 3.04788 43.0239 3.81509C43.9848 4.86639 44.6752 8.65398 44.8105 10.1177C45.1953 14.2758 44.5244 18.752 41.9797 22.1337C44.6141 25.9672 49.1274 30.0663 47.5489 35.2208C45.0887 43.2568 32.8218 45.5806 25.6637 46.8021C23.9968 47.0876 22.3012 47.3533 20.6199 47.4725H20.616L20.6147 47.4712ZM41.4518 6.32749C40.8173 6.47412 38.9293 9.02318 38.5184 9.67255C37.5718 11.1703 36.5068 13.4156 37.066 15.2145C37.2883 15.9306 38.7537 17.1705 39.3246 17.8487C39.8499 18.4732 40.3245 19.1382 40.7848 19.8125C41.2321 19.4066 41.5858 18.9995 41.8952 18.4771C43.4478 15.8521 43.7 11.8747 43.2397 8.90928C43.085 7.91034 42.8873 5.99495 41.4518 6.32618V6.32749ZM25.7509 24.7797C25.8913 24.9198 26.1332 25.0298 26.2541 25.2196L26.2307 25.4382C25.7197 26.2094 23.8642 27.6037 23.6639 28.4259C23.4507 29.2991 24.5351 29.9132 25.2282 29.345L27.7104 26.6925C28.5569 27.2594 30.2694 30.213 31.359 28.7322C31.9545 27.9231 31.2316 27.3471 30.7154 26.7723C30.216 26.2172 29.6361 25.7289 29.1316 25.1777L31.7647 22.2686C32.277 21.3705 31.5423 20.4579 30.5619 20.8913C29.7063 21.7659 28.7519 22.6614 27.9496 23.5791C27.8872 23.6498 27.83 23.7271 27.83 23.8266C27.6766 23.9352 25.7574 21.4255 25.0253 21.3744C24.2932 21.3233 23.7835 22.0565 23.9708 22.7661C24.1112 23.2937 25.3166 24.3503 25.7483 24.781H25.7496L25.7509 24.7797ZM13.6244 28.0004C14.3279 28.473 15.4812 30.2352 16.3394 30.2143C17.009 30.1986 17.5162 29.3895 17.2015 28.7715L15.0898 26.4149C15.6802 25.6935 16.3992 25.0245 16.9934 24.3175C17.403 23.8305 17.9726 23.2728 17.5565 22.6011C17.2938 22.177 16.7308 22.0408 16.3056 22.3144L13.783 25.1345C13.0367 24.5938 11.3203 21.7632 10.3048 23.223C9.42578 24.4864 11.8105 25.7053 12.3124 26.6322L9.89778 29.3594C9.41927 30.2732 10.2606 31.1988 11.1994 30.6712C11.5764 30.4591 12.4971 29.3711 12.852 28.9823C13.1108 28.6969 13.4463 28.3198 13.6231 27.9991L13.6244 28.0004ZM30.8389 36.1843C35.2911 35.3648 40.9772 32.6285 40.1671 27.152C39.9149 25.4474 38.954 24.0177 38.0659 22.5985C37.9137 22.5789 38.0087 22.7609 38.023 22.846C38.2336 24.1617 38.322 25.2157 38.1348 26.5537C37.5406 30.8087 34.1247 33.8565 30.8402 36.1843H30.8389ZM35.1428 40.1945C38.417 40.0754 42.3139 38.211 43.6259 35.0361C44.5309 32.8458 44.0524 30.2077 42.9784 28.164C42.7404 32.0865 40.6313 35.658 37.7837 38.2333L35.1428 40.1945ZM11.2124 36.293C10.8444 36.6321 10.9536 37.36 11.5517 37.415C12.9183 37.5433 12.198 35.3831 11.2124 36.293ZM23.7107 36.6138C23.2582 37.0668 24.0423 37.9269 24.5416 37.2461C24.9564 36.6818 24.0969 36.2262 23.7107 36.6138ZM13.8428 37.7567C13.298 37.9204 13.3045 38.9952 14.0743 39.0463C15.0833 39.1131 14.9468 37.4255 13.8428 37.7567ZM22.413 38.4139C22.1634 38.6666 22.2986 39.1641 22.7589 39.1379C23.5547 39.0934 22.9058 37.9151 22.413 38.4139ZM25.6013 38.9219C24.8654 38.9219 24.8914 40.1186 25.7613 39.9497C26.2918 39.8462 26.2437 38.9219 25.6013 38.9219Z" fill="#F2F2F2"/>
<path d="M16.8712 50.9995V49.6484C16.8712 49.3826 16.5292 48.4478 16.3979 48.1611C15.9649 47.2119 15.1366 46.2313 14.0288 46.1711C15.1808 47.6047 15.6476 49.7859 15.0664 51.5546C14.9208 51.7013 12.2708 52.0849 12.1616 51.9814C12.6128 50.049 11.8222 47.5851 9.5623 47.6021C10.5934 48.7987 10.99 50.4654 10.4543 51.9814C8.54288 51.7824 6.77319 51.1723 4.9944 50.4863C3.47307 49.8998 1.3393 49.2124 0.507113 47.7252C-0.722958 45.5296 0.4499 43.3301 2.2612 41.9606C3.12589 41.3073 3.6226 41.0782 4.73434 41.0913C8.1892 41.1319 13.4944 42.3691 16.3615 44.35C18.6955 45.9629 20.209 49.5659 16.8712 50.9982V50.9995Z" fill="#F2F2F2"/>
<path d="M13.7843 13.5963L10.6584 16.2121C9.75085 14.3504 8.52077 12.3918 6.96433 11.0158C6.65096 10.7396 5.96571 10.1648 5.61073 10.0064C4.25194 9.40284 4.69143 12.0226 4.79415 12.7113C5.17644 15.2826 6.29078 17.8133 7.43504 20.1149L6.55734 21.614C6.40391 20.9751 6.00082 20.3912 5.73036 19.7876C4.43528 16.906 2.78651 11.5172 3.31703 8.40522C3.48997 7.39188 3.94897 7.43377 4.77335 7.81999C6.01512 8.40129 7.61317 9.73539 8.83674 10.5183C10.4712 11.5631 12.1564 12.5397 13.783 13.5963H13.7843Z" fill="#F2F2F2"/>
<path fill-rule="evenodd" clip-rule="evenodd" d="M72.2348 0.17283C64.4175 1.18093 57.682 5.16883 55.2466 10.2342C53.131 14.6306 54.6627 19.6357 58.9147 22.2175C59.6753 22.6784 60.3359 22.6915 60.7325 22.249C61.0237 21.9243 61.0211 21.8366 60.6714 20.3427C59.7208 16.2632 60.5907 12.9548 63.4137 9.9344C66.572 6.55399 70.3546 4.86247 74.8445 4.82188C77.2526 4.80094 78.4021 5.07064 79.7335 5.97531C80.9974 6.83416 81.433 7.81739 81.5201 10.0234C81.6008 12.0279 81.3862 13.2284 80.6593 14.8479C79.6334 17.1351 77.9339 19.0715 75.6272 20.5784C74.379 21.394 70.5834 23.3539 70.4703 23.24C70.3299 23.0986 73.0852 16.601 75.0239 12.5096C76.2839 9.84799 76.3528 9.15411 75.4387 8.31096C74.812 7.73229 73.2555 7.0384 72.1828 6.85904C71.4078 6.72942 70.9982 7.14314 69.7265 9.34263C67.2573 13.6081 64.5865 19.7601 62.3747 26.2696C60.3632 32.1912 59.5648 35.7248 59.5401 38.8041C59.5245 40.7182 59.5622 40.9853 59.9575 41.7629C60.7845 43.3929 62.6192 44.5084 63.5827 43.9637C63.9884 43.7346 64.1431 43.296 65.0988 39.6787C66.3575 34.9157 67.165 32.2069 68.1818 29.3371L68.9282 27.2332L70.4885 27.0721C74.4869 26.6584 77.8455 28.1326 78.6829 30.6712C78.9235 31.4004 78.9651 31.9333 78.8832 33.27C78.679 36.5876 77.2201 39.7192 74.5961 42.4634C72.3583 44.8043 69.7838 46.3622 66.8373 47.1543C64.974 47.6558 61.8962 47.699 60.4035 47.2434C57.0878 46.2313 55.2023 44.2911 54.7277 41.4042C54.5431 40.2835 54.625 39.337 55.0372 37.7895C55.5209 35.9788 54.6016 35.9696 52.854 37.7685C48.6723 42.0667 50.0363 48.8223 55.6314 51.5154C58.2242 52.763 59.3815 52.9882 63.268 52.9987C66.4251 53.0079 66.7918 52.9738 68.4913 52.5274C75.7222 50.6264 81.1457 46.4015 84.0778 40.3856C85.3404 37.7947 85.7422 36.2079 85.8553 33.3734C85.9255 31.6138 85.8813 30.844 85.6654 29.9917C84.8164 26.6519 82.5448 24.4445 79.2368 23.7402C78.4007 23.5608 78.2356 23.4783 78.5035 23.3723C79.3903 23.0214 81.892 21.1702 83.1 19.9735C86.0152 17.0841 87.4637 13.8516 87.4637 10.2342C87.4637 5.57207 84.6889 1.92195 80.1561 0.627131C77.9977 0.00655899 74.903 -0.168877 72.2322 0.175449M124.437 1.17962C122.738 1.81198 120.202 3.86877 120.202 4.61764C120.202 5.2068 121.989 7.68516 122.412 7.68516C122.557 7.68516 123.268 7.28715 123.991 6.80012C125.117 6.04077 125.409 5.92163 126.019 5.96745L126.731 6.01982L126.722 6.82107C126.706 8.17219 125.634 9.31776 123.747 9.99201C122.612 10.3992 120.245 10.6021 118.788 10.4175L117.851 10.2997L117.913 8.60947C117.948 7.65243 117.888 6.62861 117.775 6.25025C117.439 5.1217 117.057 4.99208 114.045 4.97899L111.41 4.96852L111.302 6.98472C111.242 8.09494 111.184 9.13447 111.172 9.29681C111.151 9.56389 110.827 9.59139 107.885 9.58484C101.564 9.56913 98.2912 10.4699 95.5801 12.9705C94.3839 14.0729 93.3891 15.7434 93.3891 16.6468C93.3891 17.3184 93.7233 18.0018 94.1147 18.1262C94.2941 18.1838 94.8117 18.1066 95.2642 17.9573C96.5137 17.5436 99.2898 17.0042 101.641 16.7201C104.012 16.4321 109.242 16.0524 109.348 16.1571C109.385 16.1951 108.587 19.5637 107.573 23.6433C105.735 31.0325 105.725 31.0679 104.523 33.4939C103.118 36.3336 102.365 37.525 101.105 38.8931C98.4512 41.7787 94.3748 42.0889 93.2838 39.4914C93.159 39.1956 93.003 38.359 92.9393 37.635L92.8209 36.3166L94.2109 36.2014C97 35.967 98.9752 35.0702 100.794 33.2124C102.901 31.0613 103.843 28.9692 103.849 26.4332C103.858 22.5082 101.431 20.0115 98.2509 20.6727C94.0861 21.5367 89.6794 26.246 87.7563 31.8914C86.7512 34.8371 86.4469 39.2217 87.0958 41.327C87.7524 43.4531 89.0488 44.998 90.916 45.8805C91.821 46.3086 94.0952 46.9108 96.2173 46.3727L96.2901 46.3465L96.5228 46.2575C97.879 45.7364 99.1312 44.9666 100.188 43.9664C101.52 42.7056 102.72 41.1175 103.63 39.4417L104.097 38.5828L104.032 39.8593C103.872 43.0565 105.448 45.3031 107.835 45.2743C109.155 45.2586 110.264 44.7192 111.467 43.5042C112.567 42.3927 114.069 40.3333 114.732 39.0267C114.963 38.5697 115.179 38.194 115.211 38.194C115.242 38.194 115.205 38.5697 115.13 39.0267C114.883 40.5362 114.945 42.8103 115.244 43.2397C115.66 43.8381 116.426 44.1549 117.446 44.151C118.723 44.147 119.192 43.8708 119.378 43.0119C120.26 38.9599 121.416 35.1383 122.461 32.8118C123.53 30.4382 125.08 28.2989 126.128 27.7542C127.026 27.2855 127.026 27.7241 126.119 30.6254C125.285 33.2975 124.636 36.0076 124.358 37.9898C123.982 40.6619 124.459 42.5157 125.725 43.3039C126.465 43.7647 127.943 43.6927 129.077 43.1402C129.951 42.7147 131.326 41.4291 132.005 40.4066L132.452 39.731L132.638 40.6724C132.992 42.4529 133.85 43.4217 135.213 43.5762C136.101 43.6757 137.055 43.4099 137.964 42.8064C138.586 42.3927 139.907 40.7273 140.757 39.2846L141.211 38.5148L141.302 39.6525C141.41 41.0128 141.96 42.1204 142.81 42.6977C143.697 43.2987 145.121 43.2594 146.147 42.6048C146.958 42.0863 148.374 40.603 148.878 39.7454C149.04 39.4679 149.213 39.2427 149.266 39.244C149.32 39.2453 149.359 39.6721 149.359 40.1958C149.359 41.7564 150.408 42.7501 152.063 42.7501C153.448 42.7501 153.794 42.2474 154.06 39.858C154.24 38.249 155.129 34.0739 155.718 32.0747C157.028 27.6377 159.334 23.7925 160.549 24.0243C161.066 24.1238 160.991 24.747 160.081 27.9729C158.585 33.2713 157.98 36.746 157.982 40.0321C157.983 42.4686 158.281 44.1025 159.008 45.667C160.744 49.3996 165.129 50.9197 168.938 49.1051C170.175 48.5159 171.779 46.9383 171.701 46.3871C171.649 46.014 171.548 45.9878 169.73 45.8922C167.598 45.7796 166.75 45.4824 165.495 44.4023C164.668 43.6888 163.83 42.0968 163.538 40.6841C163.244 39.2623 163.434 35.2129 163.897 33.0199C164.101 32.0564 164.649 29.8857 165.116 28.1994C166.204 24.2717 166.403 23.189 166.292 21.8038C166.188 20.4998 165.784 19.6934 164.95 19.1265C164.263 18.6604 162.988 18.5975 162.066 18.9851C160.635 19.5886 158.513 22.2909 157.527 24.7653C157.271 25.4081 157.03 25.903 156.991 25.865C156.954 25.8271 157.002 25.5809 157.099 25.3204C157.197 25.0599 157.279 24.311 157.279 23.6564C157.279 22.7111 157.197 22.3432 156.883 21.8719C156.358 21.0798 155.488 20.6635 154.362 20.6622C153.049 20.6622 152.862 20.9149 152.604 23.041C152.378 24.8988 151.274 30.0271 150.595 32.3824C149.831 35.0309 147.849 37.8431 146.748 37.8431C145.54 37.8431 145.861 35.6109 148.4 26.3953C149.416 22.7098 149.433 22.1704 148.568 21.3574C147.584 20.4318 145.241 20.2511 144.929 21.0746C144.851 21.2814 144.57 22.6352 144.303 24.0819C143.234 29.9158 141.515 34.5203 139.646 36.5627C138.911 37.3653 138.094 37.5878 137.885 37.0419C137.527 36.1071 138.089 33.3093 139.727 27.8524C140.976 23.6904 141.136 22.2895 140.427 21.7109C140.207 21.5315 139.682 21.3325 139.257 21.2697C138.404 21.1414 136.855 21.4451 136.565 21.7973C136.462 21.9217 135.955 23.5909 135.439 25.5063C133.612 32.2606 132.188 35.9251 130.722 37.635C130.218 38.2228 129.973 38.3786 129.618 38.3367C128.672 38.2267 128.903 36.657 130.906 29.5675C132.277 24.7142 132.467 23.4299 131.956 22.4362C131.371 21.2945 129.875 21.0353 128.259 21.7934C127.098 22.3367 124.808 24.5401 123.461 26.4071C122.374 27.9127 122.103 28.1915 122.521 27.3706C123.21 26.0169 124.723 20.4147 124.72 19.2312C124.716 18.32 124.603 18.1144 123.968 17.8709C122.971 17.4886 120.457 17.7688 120.01 18.3121C119.902 18.443 119.585 19.5205 119.305 20.7028C119.026 21.885 118.239 24.8281 117.559 27.2384C116.222 31.9739 115.335 34.0752 113.486 36.89C112.458 38.4571 110.987 39.951 110.474 39.951C109.836 39.951 109.693 39.5202 109.791 37.8876C109.925 35.6345 110.73 32.7293 113.668 23.9104L116.298 16.021L118.167 15.9032C124.577 15.5012 129.265 12.7689 130.486 8.72599C131.038 6.89962 130.918 4.48018 130.208 3.04789C129.845 2.31865 129.454 1.83424 128.931 1.47027C128.264 1.0055 128.011 0.938726 126.754 0.89814C125.696 0.862791 125.102 0.938726 124.43 1.18748M172.071 2.3684C171.609 2.49277 171.393 3.24034 171.393 4.7106V6.10099L170.915 6.01851C170.652 5.97269 168.296 5.69645 165.679 5.39925C151.528 3.80331 144.399 3.58859 140.331 4.63074C137.577 5.33772 134.898 7.21776 133.634 9.32954C132.855 10.6309 132.953 10.9582 134.581 12.5502C135.984 13.9223 136.451 14.0925 137.022 13.4444C137.612 12.7728 139.389 11.7215 140.54 11.3641C143.065 10.5785 145.355 10.4136 153.808 10.4083C162.459 10.4031 170.872 10.7487 170.872 11.1075C170.872 11.5539 169.994 17.9547 169.479 21.2723C169.18 23.2008 168.459 27.0276 167.877 29.7744C166.213 37.648 166.271 40.0858 168.165 41.8428C170.415 43.9323 173.768 42.8143 176.406 39.0934L177.193 37.9819L177.722 38.9743C179.622 42.538 184.309 43.4728 188.619 41.1463C190.939 39.8947 193.186 37.8182 195.312 34.9641C197.326 32.2606 199.282 28.6838 200.261 25.9161C200.55 25.0978 200.836 24.3084 200.893 24.163C200.974 23.9614 201.344 23.8933 202.475 23.8724C203.288 23.8567 203.954 23.8737 203.954 23.9104C203.954 23.947 203.415 24.8268 202.758 25.8663C198.894 31.9726 197.439 37.7279 198.967 40.8727C199.541 42.051 200.713 43.1416 201.816 43.5199C202.258 43.6718 203.174 43.7975 203.851 43.7949C206.556 43.7949 209 41.8048 210.323 38.5265C210.853 37.2121 211.176 35.082 210.896 34.7429C210.545 34.3174 210.245 34.4837 209.503 35.5114C207.453 38.3616 205.714 39.4417 204.623 38.5514C204.248 38.2451 204.214 38.0945 204.237 36.7539C204.278 34.2873 205.25 31.5785 207.693 27.1455C209.135 24.5283 209.405 23.7729 209.256 22.7622C209.004 21.0301 207.315 20.2341 203.895 20.2341H201.836L201.933 19.7876C201.988 19.5428 202.077 18.7481 202.137 18.0254C202.235 16.8144 202.204 16.635 201.748 15.7487C201.014 14.3177 199.987 13.7312 198.221 13.7364C197.138 13.7403 196.746 13.8241 196.03 14.2025C193.616 15.4842 192.558 18.3331 193.74 20.365C194.315 21.3521 195.732 22.4021 197.355 23.0437C198.021 23.3068 198.541 23.566 198.515 23.6223C194.999 30.8663 193.294 33.4101 190.346 35.8138C188.513 37.309 187.05 38.0277 185.617 38.139C184.689 38.211 184.452 38.1652 183.928 37.8091C183.08 37.2317 182.694 36.3349 182.581 34.6774L182.485 33.2805L182.988 33.2766C183.907 33.2713 185.91 32.7607 186.867 32.2894C187.386 32.0328 188.387 31.2721 189.091 30.5979C190.613 29.1433 191.445 27.6102 191.875 25.4801C192.338 23.1864 191.823 20.9777 190.509 19.6266C189.591 18.6813 189.043 18.4718 187.493 18.4679C186.332 18.4666 185.928 18.5465 185.071 18.9497C182.325 20.2432 179.402 23.7284 177.974 27.4047C177.626 28.3028 177.26 29.8241 176.959 31.6348C176.449 34.7075 176.347 34.9432 174.885 36.4907C172.408 39.1118 171.296 37.8052 172.264 33.4075C172.461 32.5172 173.404 28.435 174.359 24.3372C175.315 20.238 176.381 15.6623 176.727 14.1684C177.073 12.6746 177.371 11.4322 177.389 11.4086C177.405 11.3863 178.549 11.4924 179.931 11.6456C182.959 11.9807 188.333 12.0488 189.669 11.7686C191.414 11.402 192.587 10.8522 193.592 9.92655C194.753 8.85691 195.261 8.01377 195.77 6.30785C196.109 5.16883 196.123 4.99077 195.895 4.76035C195.664 4.52862 195.408 4.54956 193.652 4.94495C189.534 5.87188 185.711 6.27905 181.134 6.27905H178.365L178.468 4.82188C178.619 2.65381 178.667 2.69309 175.782 2.44957C173.341 2.24402 172.571 2.22569 172.063 2.36185M197.633 17.1155C196.93 17.8971 197.503 19.2103 198.799 19.7955C199.642 20.1765 199.768 20.0586 199.773 18.8895C199.779 17.3315 198.438 16.2213 197.633 17.1155ZM186.288 22.7753C185.341 23.6538 184.167 25.8965 183.426 28.2452C183.128 29.1865 182.885 30.0349 182.885 30.1305C182.885 30.6686 184.837 29.7128 185.88 28.6628C187.77 26.7592 188.885 23.3723 187.934 22.4152C187.435 21.9125 187.154 21.974 186.287 22.7779M97.7139 25.0402C96.5423 26.013 94.8273 29.0661 93.8976 31.8338L93.41 33.2831L93.8781 33.1705C95.6894 32.7372 98.1079 30.7209 99.0077 28.8933C100.5 25.8637 99.6747 23.4089 97.7139 25.0376" fill="#F2F2F2"/>
</g>
<defs>
<clipPath id="clip0_66_1399">
<rect width="211" height="53" fill="white"/>
</clipPath>
</defs>
</svg>
