<svg width="211" height="53" viewBox="0 0 211 53" fill="none" xmlns="http://www.w3.org/2000/svg">
<path d="M72.2324 0.174072C74.9031 -0.170235 77.9978 0.00470397 80.1562 0.625244C84.689 1.92007 87.4639 5.57052 87.4639 10.2327C87.4639 13.8499 86.0156 17.0825 83.1006 19.9719C81.8928 21.1684 79.391 23.0191 78.5039 23.3704C78.236 23.4764 78.4012 23.5592 79.2373 23.7385C82.5451 24.443 84.817 26.6507 85.666 29.9905C85.8818 30.8426 85.9257 31.613 85.8555 33.3723C85.7423 36.2065 85.3406 37.7933 84.0781 40.384C81.146 46.3999 75.7221 50.6246 68.4912 52.5256C66.7919 52.972 66.4252 53.0065 63.2686 52.9973C59.3821 52.9868 58.2244 52.7615 55.6318 51.5139C50.0367 48.8208 48.6728 42.065 52.8545 37.7668C54.6019 35.9682 55.5208 35.9777 55.0371 37.7883C54.625 39.3355 54.5429 40.2821 54.7275 41.4026C55.2021 44.2893 57.0878 46.2294 60.4033 47.2415C61.896 47.6971 64.9746 47.654 66.8379 47.1526C69.7841 46.3605 72.359 44.8029 74.5967 42.4622C77.2205 39.7181 78.6786 36.5862 78.8828 33.2688C78.9647 31.9321 78.9232 31.3984 78.6826 30.6692C77.8449 28.1309 74.4864 26.6569 70.4883 27.0706L68.9287 27.2317L68.1816 29.3352C67.1648 32.205 66.3573 34.9141 65.0986 39.677C64.143 43.2939 63.9886 43.733 63.583 43.9622C62.6195 44.5068 60.785 43.391 59.958 41.761C59.5628 40.9835 59.5244 40.7165 59.54 38.803C59.5647 35.7237 60.3635 32.1894 62.375 26.2678C64.5868 19.7585 67.2574 13.6065 69.7266 9.34106C70.9981 7.14182 71.4078 6.72819 72.1826 6.85767C73.2554 7.03703 74.8117 7.73114 75.4385 8.30981C76.3526 9.15294 76.2843 9.84656 75.0244 12.5081C73.0857 16.5994 70.3303 23.0971 70.4707 23.2385C70.5868 23.3507 74.3791 21.3918 75.627 20.5764C77.9337 19.0695 79.6333 17.1332 80.6592 14.8459C81.3859 13.2266 81.6011 12.026 81.5205 10.0217C81.4334 7.81579 80.9972 6.83271 79.7334 5.97388C78.402 5.0693 77.2527 4.79962 74.8447 4.82056C70.3549 4.86114 66.5724 6.55254 63.4141 9.93286C60.5911 12.9532 59.7214 16.2615 60.6719 20.3411C61.0217 21.8349 61.0237 21.9226 60.7324 22.2473C60.3359 22.6898 59.6756 22.6768 58.915 22.2161C54.6631 19.6343 53.1315 14.629 55.2471 10.2327C57.6064 5.32575 64.0007 1.42995 71.5049 0.274658L72.2324 0.174072ZM4.73438 41.0901C8.18923 41.1307 13.4942 42.368 16.3613 44.3489C18.6953 45.9618 20.2089 49.564 16.8711 50.9963V49.6467C16.871 49.3808 16.5298 48.4461 16.3984 48.1594C15.9655 47.2103 15.137 46.2296 14.0293 46.1692C15.1813 47.6028 15.6476 49.7842 15.0664 51.553C14.9206 51.6996 12.2733 52.0827 12.1621 51.9797C12.6132 50.0474 11.8223 47.5839 9.5625 47.6008C10.5935 48.7974 10.9898 50.4637 10.4541 51.9797C8.54282 51.7807 6.77282 51.1706 4.99414 50.4846C3.47284 49.8981 1.33896 49.211 0.506836 47.7239C-0.723235 45.5283 0.45042 43.3287 2.26172 41.9592C3.12627 41.306 3.62278 41.077 4.73438 41.0901ZM126.755 0.896729C128.011 0.937315 128.265 1.00425 128.932 1.46899C129.454 1.83289 129.845 2.3172 130.208 3.04614C130.918 4.47843 131.038 6.89849 130.486 8.72485C129.265 12.7674 124.577 15.4996 118.168 15.9016L116.298 16.0198L113.669 23.9084C110.73 32.7272 109.925 35.6328 109.791 37.886C109.693 39.5185 109.837 39.9494 110.474 39.9495C110.987 39.9495 112.458 38.4559 113.486 36.8889C115.335 34.0741 116.222 31.972 117.559 27.2366C118.239 24.8264 119.026 21.8837 119.306 20.7014C119.585 19.52 119.902 18.4429 120.01 18.3108C120.457 17.7675 122.97 17.4873 123.968 17.8694C124.602 18.1129 124.716 18.3185 124.72 19.2297C124.724 20.4134 123.21 26.0157 122.521 27.3694C122.103 28.1898 122.374 27.9109 123.461 26.4055C124.808 24.5388 127.098 22.3359 128.259 21.7922C129.875 21.0342 131.371 21.2932 131.956 22.4348C132.467 23.4285 132.277 24.713 130.906 29.5657C128.903 36.6551 128.673 38.2252 129.618 38.3352C129.973 38.377 130.219 38.2207 130.722 37.6331C132.188 35.9232 133.613 32.259 135.439 25.5051C135.955 23.5906 136.462 21.9219 136.565 21.7961C136.855 21.444 138.404 21.1395 139.257 21.2678C139.682 21.3306 140.207 21.5299 140.427 21.7092C141.135 22.2879 140.976 23.6889 139.728 27.8508C138.089 33.3074 137.527 36.1053 137.885 37.0403C138.094 37.5862 138.911 37.3633 139.646 36.5608C141.515 34.5183 143.235 29.9141 144.304 24.0803C144.57 22.6346 144.85 21.2816 144.929 21.0735C145.241 20.25 147.584 20.4301 148.568 21.3557C149.433 22.1687 149.416 22.7084 148.4 26.3938C145.861 35.6094 145.54 37.842 146.748 37.842C147.849 37.8416 149.831 35.0294 150.596 32.3811C151.274 30.0258 152.378 24.8971 152.604 23.0393C152.862 20.9133 153.049 20.6604 154.362 20.6604C155.488 20.6617 156.358 21.0783 156.884 21.8704C157.197 22.3416 157.279 22.7096 157.279 23.6545C157.279 24.3089 157.197 25.0578 157.1 25.3186C157.002 25.5789 156.954 25.8252 156.991 25.8635C157.03 25.9015 157.271 25.4067 157.527 24.7639C158.513 22.2896 160.635 19.5873 162.066 18.9836C162.988 18.5961 164.262 18.6592 164.95 19.1252C165.784 19.6921 166.188 20.4982 166.292 21.802C166.403 23.1871 166.204 24.27 165.115 28.1975C164.648 29.8838 164.102 32.0552 163.897 33.0188C163.435 35.2118 163.244 39.2611 163.538 40.6829C163.829 42.0953 164.668 43.687 165.495 44.4006C166.75 45.4807 167.598 45.7783 169.73 45.8909C171.548 45.9864 171.649 46.0129 171.701 46.386C171.778 46.9375 170.175 48.5147 168.938 49.1038C165.129 50.9183 160.744 49.3978 159.008 45.6653C158.281 44.1009 157.984 42.4668 157.982 40.0305C157.98 36.7444 158.586 33.2693 160.081 27.9709C160.991 24.7454 161.066 24.1222 160.549 24.0227C159.334 23.7915 157.028 27.6368 155.719 32.0735C155.13 34.0728 154.24 38.2477 154.061 39.8567C153.794 42.2458 153.448 42.7483 152.063 42.7483C150.408 42.7483 149.359 41.755 149.358 40.1946C149.358 39.6713 149.32 39.2444 149.267 39.2424C149.213 39.2411 149.04 39.4661 148.878 39.7434C148.375 40.6008 146.959 42.0841 146.147 42.6028C145.122 43.2574 143.697 43.2974 142.811 42.6965C141.96 42.1192 141.41 41.0109 141.302 39.6506L141.211 38.5129L140.758 39.2834C139.908 40.726 138.586 42.3909 137.965 42.8049C137.056 43.4085 136.101 43.674 135.213 43.5745C133.85 43.4199 132.992 42.4514 132.639 40.6711L132.452 39.7297L132.005 40.4055C131.326 41.4279 129.951 42.7134 129.077 43.1389C127.943 43.6914 126.464 43.7628 125.725 43.302C124.46 42.5138 123.983 40.6603 124.358 37.9885C124.637 36.0064 125.286 33.2963 126.119 30.6243C127.027 27.723 127.026 27.2845 126.128 27.7532C125.08 28.2979 123.53 30.4364 122.461 32.8098C121.416 35.1362 120.26 38.9581 119.378 43.01C119.192 43.8688 118.723 44.1457 117.446 44.1497C116.427 44.1536 115.66 43.8368 115.244 43.2385C114.945 42.8091 114.883 40.5342 115.13 39.0247C115.205 38.5692 115.242 38.1947 115.211 38.1926C115.18 38.1926 114.964 38.568 114.732 39.0247C114.069 40.3312 112.567 42.3907 111.467 43.5022C110.264 44.717 109.156 45.2569 107.836 45.2727C105.449 45.3015 103.872 43.0548 104.032 39.8577L104.097 38.5813L103.63 39.4397C102.72 41.1155 101.52 42.7043 100.188 43.9651C99.1315 44.9652 97.8794 45.7351 96.5234 46.2561L96.29 46.345L96.2178 46.3713C94.0957 46.9094 91.821 46.3073 90.916 45.8792C89.0488 44.9967 87.7523 43.4516 87.0957 41.3254C86.4469 39.2202 86.7517 34.8356 87.7568 31.8899C89.68 26.2446 94.0862 21.5353 98.251 20.6711C101.431 20.01 103.858 22.5068 103.849 26.4319C103.843 28.9678 102.9 31.0602 100.794 33.2112C98.975 35.0687 96.9998 35.9651 94.2109 36.1995L92.8213 36.3147L92.9395 37.6331C93.0032 38.3568 93.1594 39.1934 93.2842 39.4895C94.3751 42.087 98.4516 41.7774 101.105 38.8918C102.365 37.5237 103.118 36.332 104.523 33.4924C105.725 31.0664 105.736 31.0311 107.573 23.6418C108.587 19.5623 109.385 16.1935 109.348 16.1555C109.24 16.051 104.012 16.431 101.641 16.719C99.2901 17.0031 96.5144 17.5416 95.2646 17.9553C94.8123 18.1045 94.2949 18.1817 94.1152 18.1243C93.7238 17.9999 93.3896 17.3164 93.3896 16.6448C93.39 15.7413 94.3841 14.0712 95.5801 12.969C98.2912 10.4684 101.564 9.56755 107.885 9.58325C110.827 9.5898 111.151 9.56225 111.172 9.29517C111.184 9.13253 111.242 8.09346 111.302 6.98364L111.41 4.96704L114.046 4.97778C117.057 4.99088 117.439 5.12024 117.774 6.24829C117.888 6.62662 117.948 7.6507 117.913 8.60767L117.852 10.2981L118.788 10.4163C120.246 10.6008 122.612 10.3976 123.747 9.99048C125.634 9.31624 126.706 8.17067 126.722 6.81958L126.731 6.01782L126.019 5.96606C125.409 5.92026 125.117 6.03879 123.991 6.7981C123.269 7.28464 122.559 7.68304 122.412 7.68384C121.99 7.68384 120.203 5.20623 120.202 4.61646C120.202 3.91433 122.431 2.06239 124.11 1.31274L124.43 1.18579C125.102 0.937047 125.696 0.86138 126.755 0.896729ZM40.9932 4.13989C41.616 3.64501 42.3223 3.04652 43.0244 3.81372C43.9852 4.86544 44.6753 8.65288 44.8105 10.1165C45.1954 14.2745 44.5241 18.7504 41.9795 22.1321C44.6138 25.9655 49.1272 30.0647 47.5488 35.219C45.0887 43.255 32.8222 45.5795 25.6641 46.801C23.9971 47.0864 22.3014 47.3518 20.6201 47.4709H20.6162L20.6152 47.47C20.1874 45.3137 18.5877 43.6385 16.792 42.5256L18.209 41.0422C20.335 41.5044 22.4032 42.1802 24.4238 42.9749C23.1417 41.1721 20.7394 40.6499 18.9463 39.5344L18.4238 36.8469C19.7306 36.3167 21.058 35.1928 21.7783 33.9661C22.4987 32.7394 22.6472 31.8126 21.1143 31.2942C19.6098 30.7862 14.7181 31.2798 13.5166 32.4319C12.6909 33.224 13.4026 34.4721 14.0293 35.1633C14.8276 36.0429 16.0497 36.6393 17.2002 36.8762L17.584 39.6418L15.6035 41.8137C12.5012 40.4182 9.18559 39.5656 5.78809 39.2932C5.13274 39.2408 4.82666 39.5408 4.47168 38.9006C4.07121 38.1766 3.6145 36.7963 3.55469 35.9768C3.41576 34.0498 4.43294 32.1788 5.09863 30.4534C5.31175 30.4298 5.22759 30.4567 5.2627 30.5745C5.71133 32.1021 6.55661 33.3928 7.85938 34.3C6.49147 31.5219 6.20166 28.9795 7.02734 25.9709C8.43556 20.8296 12.7212 15.6951 17.748 13.8596C18.324 13.6488 19.026 13.3932 19.6357 13.3879L18.7412 15.1877C16.9638 15.7363 15.3875 16.7902 14.1133 18.136L14.2822 18.2239L18.417 17.1125C18.2506 18.3404 18.2664 19.7621 18.8643 20.8762C19.1425 19.5016 19.4865 18.0749 20.2861 16.9084C22.4236 16.5171 24.5741 17.0724 26.7012 17.2766C25.4724 15.809 23.4076 15.2645 21.5859 14.9856C21.5144 14.9254 22.2376 14.0585 22.3184 13.9641C22.5471 13.7023 23.462 12.7497 23.7393 12.6956C26.2851 12.528 28.7779 12.7648 31.2471 13.3918C33.0532 11.5786 34.9964 9.91088 36.8545 8.15259C38.2263 6.85386 39.5161 5.31556 40.9932 4.13989ZM172.063 2.3606C172.572 2.22452 173.342 2.24298 175.782 2.44849C178.667 2.69197 178.62 2.65257 178.469 4.82056L178.365 6.27759H181.134C185.711 6.27759 189.534 5.87047 193.651 4.9436C195.408 4.54822 195.664 4.5273 195.895 4.75903C196.123 4.98944 196.109 5.16714 195.77 6.30591C195.261 8.01183 194.753 8.85541 193.592 9.92505C192.587 10.8506 191.414 11.4003 189.669 11.7668C188.334 12.047 182.959 11.979 179.931 11.6438C178.549 11.4906 177.404 11.3852 177.389 11.4075C177.368 11.4434 177.072 12.6811 176.728 14.1672C176.382 15.6613 175.315 20.2364 174.359 24.3352C173.404 28.4325 172.461 32.5144 172.265 33.4055C171.296 37.8031 172.408 39.1104 174.885 36.4895C176.348 34.942 176.449 34.7058 176.959 31.6331C177.261 29.8227 177.626 28.3017 177.975 27.4036C179.402 23.7273 182.325 20.242 185.071 18.9485C185.928 18.5453 186.332 18.4648 187.493 18.4661C189.043 18.47 189.591 18.68 190.509 19.6252C191.823 20.9764 192.339 23.185 191.876 25.4788C191.446 27.6087 190.613 29.1415 189.092 30.5959C188.387 31.2702 187.386 32.0317 186.867 32.2883C185.91 32.7596 183.908 33.2694 182.988 33.2747L182.485 33.2786L182.581 34.676C182.694 36.3333 183.08 37.2305 183.928 37.8079C184.452 38.164 184.689 38.2099 185.617 38.1379C187.05 38.0267 188.513 37.3078 190.347 35.8127C193.294 33.409 194.999 30.8643 198.515 23.6204C198.539 23.5634 198.019 23.3049 197.354 23.0422C195.732 22.4007 194.315 21.3506 193.74 20.3635C192.558 18.3316 193.617 15.4831 196.03 14.2014C196.747 13.8231 197.138 13.7386 198.221 13.7346C199.986 13.7294 201.014 14.3163 201.749 15.7473C202.204 16.6333 202.235 16.813 202.138 18.0237C202.078 18.7464 201.988 19.5416 201.934 19.7864L201.836 20.2327H203.896C207.315 20.2327 209.005 21.0289 209.257 22.761C209.405 23.7715 209.135 24.527 207.693 27.1438C205.25 31.5768 204.278 34.2857 204.237 36.7522C204.214 38.0928 204.248 38.2437 204.624 38.55C205.715 39.4398 207.454 38.3599 209.504 35.51C210.245 34.4823 210.545 34.316 210.896 34.7415C211.176 35.0813 210.853 37.2105 210.322 38.5247C209 41.8028 206.556 43.793 203.852 43.7932C203.174 43.7958 202.259 43.6706 201.816 43.5188C200.714 43.1405 199.541 42.0495 198.968 40.8713C197.44 37.7266 198.895 31.9707 202.758 25.8645C203.416 24.8251 203.954 23.9451 203.954 23.9084C203.95 23.872 203.286 23.8557 202.476 23.8713C201.344 23.8923 200.973 23.9598 200.893 24.1614C200.835 24.3068 200.549 25.0962 200.261 25.9143C199.282 28.6819 197.327 32.2587 195.312 34.9622C193.187 37.8163 190.939 39.8932 188.619 41.1448C184.309 43.471 179.621 42.5365 177.722 38.9729L177.192 37.9807L176.406 39.092C173.768 42.8129 170.416 43.9306 168.165 41.8411C166.272 40.0841 166.214 37.6464 167.878 29.7727C168.459 27.026 169.18 23.1992 169.479 21.2708C169.994 17.9532 170.872 11.5522 170.872 11.1057C170.869 10.7471 162.458 10.4013 153.809 10.4065C145.355 10.4117 143.065 10.577 140.54 11.3625C139.389 11.72 137.612 12.771 137.021 13.4426C136.451 14.0907 135.984 13.921 134.581 12.5491C132.953 10.9571 132.856 10.6296 133.635 9.32837C134.899 7.21659 137.577 5.33613 140.331 4.62915C144.4 3.58705 151.528 3.80178 165.679 5.39771C168.296 5.6949 170.652 5.97102 170.915 6.01685L171.394 6.09985V4.70923C171.394 3.33086 171.583 2.5877 171.987 2.39771L172.063 2.3606ZM42.9785 28.1624C42.7406 32.0847 40.6317 35.6565 37.7842 38.2317L35.1426 40.1926C38.4167 40.0735 42.314 38.2093 43.626 35.0344C44.5309 32.8441 44.0525 30.206 42.9785 28.1624ZM25.6016 38.9202C24.8656 38.9202 24.8918 40.1174 25.7617 39.9485C26.292 39.8448 26.2437 38.9203 25.6016 38.9202ZM22.7588 39.136C23.5546 39.0915 22.9059 37.9135 22.4131 38.4124C22.1635 38.665 22.2987 39.162 22.7588 39.136ZM14.0742 39.0452C15.0832 39.1119 14.9467 37.4239 13.8428 37.7551C13.2982 37.9189 13.3047 38.9939 14.0742 39.0452ZM24.542 37.2444C24.9563 36.6802 24.0971 36.2251 23.7109 36.6125C23.2587 37.0656 24.0427 37.9251 24.542 37.2444ZM11.5518 37.4133C12.9182 37.5416 12.1983 35.3821 11.2129 36.2913C10.8449 36.6303 10.9537 37.3582 11.5518 37.4133ZM38.0664 22.5969C37.9145 22.5773 38.0089 22.7587 38.0234 22.844C38.2341 24.1597 38.322 25.214 38.1348 26.552C37.5405 30.8069 34.1243 33.8541 30.8398 36.1819C35.2918 35.3621 40.9769 32.6266 40.167 27.1506C39.9147 25.4461 38.9545 24.0161 38.0664 22.5969ZM99.0078 28.8918C100.501 25.8623 99.6747 23.4077 97.7139 25.0364L97.4883 25.2454C96.3311 26.3926 94.769 29.2378 93.8975 31.8323L93.4102 33.2815L93.8779 33.1692C95.6892 32.7358 98.108 30.7195 99.0078 28.8918ZM17.5566 22.5999C17.294 22.1757 16.7309 22.0391 16.3057 22.3127L13.7832 25.1331C13.0368 24.5923 11.3202 21.7621 10.3047 23.2219C9.42647 24.4852 11.8106 25.7043 12.3125 26.6311L9.89746 29.3577C9.41903 30.2715 10.2604 31.1968 11.1992 30.6692C11.5763 30.4571 12.4976 29.3696 12.8525 28.9807C13.1113 28.6953 13.4463 28.318 13.623 27.9973L13.625 27.9993C14.3285 28.4724 15.4819 30.2341 16.3398 30.2131C17.0093 30.1972 17.5158 29.3876 17.2012 28.7698L15.0898 26.4133C15.6802 25.692 16.3989 25.0227 16.9932 24.3157C17.4027 23.8287 17.9725 23.2714 17.5566 22.5999ZM187.935 22.4133C187.435 21.9107 187.154 21.9728 186.287 22.7766L186.108 22.9543C185.197 23.9331 184.122 26.0416 183.427 28.2434C183.129 29.1847 182.886 30.0336 182.886 30.1292C182.886 30.6668 184.837 29.7112 185.88 28.6614C187.771 26.7578 188.885 23.3704 187.935 22.4133ZM31.7646 22.2668C32.2768 21.3688 31.5427 20.4569 30.5625 20.8899C29.707 21.7644 28.7524 22.6597 27.9502 23.5774C27.8878 23.6481 27.8301 23.7259 27.8301 23.8254C27.6749 23.9313 25.7571 21.4243 25.0254 21.3733C24.2933 21.3222 23.7835 22.0553 23.9707 22.7649C24.1114 23.2925 25.3163 24.3488 25.748 24.7795H25.75L25.751 24.7786C25.8914 24.9185 26.133 25.0284 26.2539 25.218L26.2305 25.4368C25.7193 26.2079 23.8646 27.6019 23.6641 28.4241C23.4508 29.2973 24.5355 29.9112 25.2285 29.343L27.7109 26.6907C28.5575 27.2578 30.2698 30.2114 31.3594 28.7307C31.9547 27.9217 31.232 27.3454 30.7158 26.7708C30.2165 26.2156 29.6363 25.7272 29.1318 25.176L31.7646 22.2668ZM3.31738 8.40356C3.49034 7.39039 3.9491 7.4324 4.77344 7.8186C6.01521 8.3999 7.61335 9.73393 8.83691 10.5168C10.4714 11.5616 12.1566 12.5384 13.7832 13.595H13.7842L10.6582 16.2102C9.75063 14.3486 8.52114 12.3898 6.96484 11.0139C6.65161 10.7378 5.96644 10.1638 5.61133 10.0051C4.25253 9.40158 4.69122 12.0216 4.79395 12.7102C5.17629 15.2814 6.29136 17.812 7.43555 20.1135L6.55762 21.6125C6.4042 20.9737 6.00093 20.3898 5.73047 19.7864C4.43538 16.9048 2.78687 11.5156 3.31738 8.40356ZM199.773 18.8879C199.779 17.33 198.438 16.2194 197.633 17.1135C196.929 17.8951 197.503 19.209 198.8 19.7942C199.642 20.175 199.768 20.0569 199.773 18.8879ZM43.2402 8.90747C43.0855 7.90853 42.8874 5.9935 41.4521 6.32446V6.32642C40.8176 6.47305 38.9294 9.02177 38.5186 9.67114C37.572 11.1689 36.5073 13.4143 37.0664 15.2131C37.289 15.9292 38.7532 17.1687 39.3242 17.8469C39.8495 18.4714 40.3249 19.1365 40.7852 19.8108C41.2323 19.405 41.5861 18.9981 41.8955 18.4758C43.448 15.8508 43.7005 11.8729 43.2402 8.90747Z" fill="url(#paint0_linear_884_2540)"/>
<defs>
<linearGradient id="paint0_linear_884_2540" x1="0" y1="26.4995" x2="210.999" y2="26.4995" gradientUnits="userSpaceOnUse">
<stop stop-color="#7456C8"/>
<stop offset="0.336538" stop-color="#D783D8"/>
<stop offset="0.692308" stop-color="#FF90A5"/>
<stop offset="1" stop-color="#FF6A56"/>
</linearGradient>
</defs>
</svg>
