<?xml version="1.0" encoding="UTF-8"?>
<svg id="Layer_1" data-name="Layer 1" xmlns="http://www.w3.org/2000/svg" viewBox="0 0 922.31 302.3">
  <defs>
    <style>
      .cls-1 {
        fill: #f2f2f2;
        fill-rule: evenodd;
      }
    </style>
  </defs>
  <path id="svg_1" data-name="svg 1" class="cls-1" d="M125.33.99C80.43,6.74,41.75,29.49,27.76,58.38c-12.15,25.08-3.35,53.63,21.07,68.35,4.37,2.63,8.16,2.7,10.44.18,1.67-1.85,1.66-2.35-.35-10.87-5.46-23.27-.46-42.14,15.75-59.37,18.14-19.28,39.86-28.93,65.65-29.16,13.83-.12,20.43,1.42,28.08,6.58,7.26,4.9,9.76,10.51,10.26,23.09.46,11.43-.77,18.28-4.94,27.52-5.89,13.05-15.65,24.09-28.9,32.69-7.17,4.65-28.97,15.83-29.62,15.18-.81-.81,15.02-37.87,26.15-61.21,7.24-15.18,7.63-19.14,2.38-23.95-3.6-3.3-12.54-7.26-18.7-8.28-4.45-.74-6.8,1.62-14.11,14.17-14.18,24.33-29.52,59.42-42.22,96.55-11.55,33.78-16.14,53.93-16.28,71.5-.09,10.92.13,12.44,2.4,16.88,4.75,9.3,15.29,15.66,20.82,12.55,2.33-1.31,3.22-3.81,8.71-24.44,7.23-27.17,11.87-42.62,17.71-58.99l4.29-12,8.96-.92c22.96-2.36,42.25,6.05,47.06,20.53,1.38,4.16,1.62,7.2,1.15,14.82-1.17,18.92-9.55,36.79-24.62,52.44-12.85,13.35-27.64,22.24-44.56,26.76-10.7,2.86-28.38,3.11-36.95.51-19.04-5.77-29.87-16.84-32.6-33.31-1.06-6.39-.59-11.79,1.78-20.62,2.78-10.33-2.5-10.38-12.54-.12-24.02,24.52-16.18,63.05,15.95,78.41,14.89,7.12,21.54,8.4,43.86,8.46,18.13.05,20.24-.14,30-2.69,41.53-10.84,72.68-34.94,89.52-69.26,7.25-14.78,9.56-23.83,10.21-40,.4-10.04.15-14.43-1.09-19.29-4.88-19.05-17.92-31.64-36.92-35.66-4.8-1.02-5.75-1.49-4.21-2.1,5.09-2,19.46-12.56,26.4-19.39,16.74-16.48,25.06-34.92,25.06-55.55,0-26.59-15.94-47.41-41.97-54.8C158.44.03,140.67-.97,125.33.99M425.14,6.73c-9.76,3.61-24.32,15.34-24.32,19.61,0,3.36,10.26,17.5,12.69,17.5.84,0,4.92-2.27,9.07-5.05,6.47-4.33,8.14-5.01,11.64-4.75l4.09.3-.05,4.57c-.09,7.71-6.25,14.24-17.09,18.09-6.52,2.32-20.11,3.48-28.48,2.43l-5.38-.67.35-9.64c.2-5.46-.14-11.3-.79-13.46-1.93-6.44-4.12-7.18-21.42-7.25l-15.14-.06-.62,11.5c-.34,6.33-.68,12.26-.75,13.19-.12,1.52-1.98,1.68-18.88,1.64-36.3-.09-55.1,5.05-70.67,19.31-6.87,6.29-12.58,15.82-12.58,20.97,0,3.83,1.92,7.73,4.17,8.44,1.03.33,4-.11,6.6-.96,7.18-2.36,23.12-5.44,36.62-7.06,13.62-1.64,43.66-3.81,44.26-3.21.22.22-4.37,19.43-10.19,42.7-10.55,42.15-10.61,42.35-17.51,56.19-8.07,16.2-12.4,22.99-19.63,30.8-15.24,16.46-38.65,18.23-44.92,3.41-.72-1.69-1.61-6.46-1.98-10.59l-.68-7.52,7.98-.66c16.02-1.34,27.36-6.45,37.81-17.05,12.1-12.27,17.51-24.2,17.54-38.67.05-22.39-13.88-36.63-32.15-32.86-23.92,4.93-49.23,31.79-60.27,63.99-5.77,16.8-7.52,41.81-3.79,53.82,3.77,12.13,11.22,20.94,21.94,25.97,5.2,2.44,18.26,5.88,30.45,2.81l.42-.15,1.34-.51c7.79-2.97,14.98-7.36,21.05-13.07,7.65-7.19,14.54-16.25,19.77-25.81l2.68-4.9-.37,7.28c-.92,18.24,8.13,31.05,21.84,30.89,7.58-.09,13.95-3.17,20.86-10.1,6.32-6.34,14.94-18.09,18.75-25.54,1.33-2.61,2.57-4.75,2.75-4.75s-.03,2.14-.46,4.75c-1.42,8.61-1.06,21.58.66,24.03,2.39,3.41,6.79,5.22,12.64,5.2,7.33-.02,10.03-1.6,11.1-6.5,5.06-23.11,11.7-44.91,17.71-58.18,6.14-13.54,15.04-25.74,21.06-28.85,5.16-2.67,5.16-.17-.05,16.38-4.79,15.24-8.51,30.7-10.11,42.01-2.16,15.24.58,25.82,7.85,30.31,4.25,2.63,12.74,2.22,19.25-.93,5.02-2.43,12.92-9.76,16.82-15.59l2.57-3.85,1.07,5.37c2.03,10.16,6.96,15.68,14.79,16.56,5.1.57,10.58-.95,15.8-4.39,3.57-2.36,11.16-11.86,16.04-20.09l2.61-4.39.52,6.49c.62,7.76,3.78,14.08,8.66,17.37,5.09,3.43,13.27,3.2,19.16-.53,4.66-2.96,12.79-11.42,15.68-16.31.93-1.58,1.93-2.87,2.23-2.86s.53,2.44.53,5.43c0,8.9,6.03,14.57,15.53,14.57,7.95,0,9.94-2.87,11.47-16.5,1.03-9.18,6.14-32.99,9.52-44.4,7.52-25.31,20.77-47.24,27.74-45.92,2.97.57,2.54,4.12-2.69,22.52-8.59,30.22-12.07,50.04-12.05,68.79.01,13.9,1.72,23.22,5.89,32.14,9.97,21.29,35.15,29.96,57.03,19.61,7.1-3.36,16.32-12.36,15.87-15.5-.3-2.13-.88-2.28-11.32-2.82-12.25-.64-17.12-2.34-24.32-8.5-4.75-4.07-9.57-13.15-11.24-21.21-1.69-8.11-.6-31.21,2.06-43.72,1.17-5.5,4.32-17.88,7-27.5,6.25-22.4,7.39-28.58,6.76-36.48-.6-7.44-2.92-12.04-7.71-15.27-3.95-2.66-11.27-3.02-16.56-.81-8.22,3.44-20.41,18.86-26.07,32.97-1.47,3.67-2.85,6.49-3.08,6.27-.22-.22.06-1.62.62-3.11s1.03-5.76,1.03-9.49c0-5.39-.47-7.49-2.27-10.18-3.02-4.52-8.01-6.89-14.48-6.9-7.54,0-8.62,1.44-10.1,13.57-1.3,10.6-7.64,39.85-11.54,53.28-4.39,15.11-15.77,31.15-22.1,31.15-6.94,0-5.09-12.73,9.49-65.3,5.83-21.02,5.93-24.1.96-28.74-5.65-5.28-19.11-6.31-20.9-1.61-.45,1.18-2.06,8.9-3.59,17.15-6.14,33.28-16.01,59.54-26.75,71.19-4.22,4.58-8.91,5.85-10.11,2.73-2.05-5.33,1.17-21.29,10.58-52.42,7.17-23.74,8.09-31.73,4.02-35.03-1.26-1.02-4.28-2.16-6.72-2.52-4.9-.73-13.79,1-15.46,3.01-.59.71-3.5,10.23-6.47,21.16-10.49,38.53-18.67,59.43-27.09,69.18-2.89,3.35-4.3,4.24-6.34,4-5.43-.63-4.11-9.58,7.4-50.02,7.87-27.68,8.96-35.01,6.03-40.68-3.36-6.51-11.95-7.99-21.23-3.67-6.67,3.1-19.82,15.67-27.56,26.32-6.24,8.59-7.8,10.18-5.4,5.5,3.96-7.72,12.65-39.68,12.63-46.43-.02-5.2-.67-6.37-4.32-7.76-5.73-2.18-20.16-.58-22.73,2.52-.62.75-2.44,6.89-4.05,13.64-1.61,6.75-6.12,23.53-10.03,37.28-7.68,27.01-12.77,39-23.39,55.05-5.91,8.94-14.35,17.46-17.3,17.46-3.66,0-4.48-2.46-3.92-11.77.77-12.85,5.39-29.42,22.27-79.73l15.1-45,10.74-.67c36.81-2.29,63.74-17.88,70.75-40.94,3.17-10.42,2.48-24.22-1.6-32.39-2.08-4.16-4.33-6.92-7.33-9-3.83-2.65-5.29-3.03-12.5-3.26-6.08-.2-9.49.23-13.35,1.65M698.71,13.51c-2.65.71-3.89,4.97-3.89,13.36v7.93l-2.75-.47c-1.51-.26-15.04-1.84-30.07-3.53-81.27-9.1-122.21-10.33-145.58-4.38-15.82,4.03-31.2,14.76-38.46,26.8-4.47,7.42-3.91,9.29,5.44,18.37,8.06,7.83,10.74,8.8,14.02,5.1,3.39-3.83,13.6-9.83,20.21-11.87,14.5-4.48,27.65-5.42,76.2-5.45,49.68-.03,98,1.94,98,3.99,0,2.55-5.04,39.06-8,57.98-1.72,11-5.86,32.83-9.2,48.5-9.56,44.91-9.22,58.82,1.65,68.84,12.93,11.92,32.18,5.54,47.33-15.68l4.52-6.34,3.04,5.66c10.91,20.33,37.83,25.66,62.59,12.39,13.32-7.14,26.23-18.98,38.44-35.26,11.57-15.42,22.8-35.82,28.42-51.61,1.66-4.67,3.3-9.17,3.63-10,.46-1.15,2.59-1.54,9.09-1.66,4.67-.09,8.49.01,8.49.22s-3.09,5.23-6.87,11.16c-22.19,34.83-30.54,67.66-21.77,85.6,3.29,6.72,10.03,12.94,16.36,15.1,2.54.87,7.8,1.58,11.69,1.57,15.53,0,29.57-11.35,37.17-30.05,3.05-7.5,4.9-19.65,3.29-21.58-2.02-2.43-3.74-1.48-8,4.38-11.78,16.26-21.76,22.42-28.03,17.34-2.16-1.75-2.35-2.61-2.22-10.25.23-14.07,5.82-29.52,19.85-54.81,8.28-14.93,9.83-19.24,8.98-25-1.45-9.88-11.15-14.42-30.79-14.42h-11.83l.56-2.55c.31-1.4.83-5.93,1.17-10.05.56-6.91.38-7.93-2.23-12.99-4.22-8.16-10.12-11.51-20.26-11.48-6.22.02-8.47.5-12.58,2.66-13.86,7.31-19.94,23.56-13.15,35.15,3.3,5.63,11.44,11.62,20.76,15.28,3.82,1.5,6.81,2.98,6.66,3.3-20.19,41.32-29.98,55.83-46.91,69.54-10.53,8.53-18.93,12.63-27.16,13.26-5.33.41-6.69.15-9.7-1.88-4.87-3.29-7.09-8.41-7.74-17.86l-.55-7.97,2.89-.02c5.28-.03,16.78-2.94,22.28-5.63,2.98-1.46,8.73-5.8,12.78-9.65,8.74-8.3,13.52-17.04,15.99-29.19,2.66-13.08-.3-25.68-7.85-33.39-5.27-5.39-8.42-6.59-17.32-6.61-6.67-.01-8.99.45-13.91,2.75-15.77,7.38-32.56,27.26-40.76,48.23-2,5.12-4.1,13.8-5.83,24.13-2.93,17.53-3.51,18.87-11.91,27.7-14.23,14.95-20.61,7.5-15.05-17.59,1.13-5.08,6.54-28.36,12.03-51.74,5.49-23.38,11.61-49.48,13.6-58,1.99-8.52,3.7-15.61,3.8-15.74.09-.13,6.66.48,14.6,1.35,17.39,1.91,48.26,2.3,55.93.7,10.02-2.09,16.76-5.23,22.53-10.51,6.67-6.1,9.59-10.91,12.51-20.64,1.95-6.5,2.03-7.51.72-8.83-1.32-1.32-2.79-1.2-12.88,1.05-23.65,5.29-45.61,7.61-71.89,7.61h-15.9l.59-8.31c.87-12.37,1.14-12.14-15.43-13.53-14.02-1.17-18.44-1.28-21.36-.5M845.52,97.63c-4.04,4.46-.75,11.95,6.7,15.29,4.84,2.17,5.56,1.5,5.59-5.17.03-8.89-7.67-15.22-12.29-10.12M780.37,129.91c-5.44,5.01-12.18,17.8-16.44,31.2-1.71,5.37-3.11,10.21-3.11,10.75,0,3.07,11.21-2.38,17.2-8.37,10.86-10.86,17.26-30.18,11.8-35.64-2.87-2.87-4.48-2.52-9.46,2.07M271.66,142.83c-6.73,5.55-16.58,22.96-21.92,38.75l-2.8,8.27,2.69-.64c10.4-2.47,24.29-13.97,29.46-24.4,8.57-17.28,3.83-31.28-7.43-21.99"/>
</svg>