<svg width="18" height="18" viewBox="0 0 18 18" fill="none" xmlns="http://www.w3.org/2000/svg">
<path d="M3.837 0.5H5.50366C7.34461 0.5 8.837 1.99238 8.837 3.83333V6.33333C8.837 8.17428 7.34461 9.66667 5.50366 9.66667H3.837C1.99605 9.66667 0.503662 8.17428 0.503662 6.33333V3.83333C0.503662 1.99238 1.99605 0.5 3.837 0.5Z" fill="url(#paint0_linear_998_8008)"/>
<path d="M13.6287 1.33333C13.6287 0.988155 13.3488 0.708333 13.0037 0.708333C12.6585 0.708333 12.3787 0.988155 12.3787 1.33333V3.20833H10.5037C10.1585 3.20833 9.87866 3.48816 9.87866 3.83333C9.87866 4.17851 10.1585 4.45833 10.5037 4.45833H12.3787V6.33333C12.3787 6.67851 12.6585 6.95833 13.0037 6.95833C13.3488 6.95833 13.6287 6.67851 13.6287 6.33333V4.45833H15.5037C15.8488 4.45833 16.1287 4.17851 16.1287 3.83333C16.1287 3.48816 15.8488 3.20833 15.5037 3.20833H13.6287V1.33333Z" fill="url(#paint1_linear_998_8008)"/>
<path d="M12.1703 8C10.3294 8 8.837 9.49238 8.837 11.3333V13.8333C8.837 15.6743 10.3294 17.1667 12.1703 17.1667H13.837C15.6779 17.1667 17.1703 15.6743 17.1703 13.8333V11.3333C17.1703 9.49238 15.6779 8 13.837 8H12.1703Z" fill="url(#paint2_linear_998_8008)"/>
<path d="M3.64745 10.8803L0.605214 16.053C0.312357 16.5509 0.687877 17.1667 1.28441 17.1667H7.22297C7.81235 17.1667 8.18859 16.5642 7.90996 16.0666L5.01363 10.8938C4.72306 10.3749 3.9492 10.3672 3.64745 10.8803Z" fill="url(#paint3_linear_998_8008)"/>
<path d="M3.837 0.5H5.50366C7.34461 0.5 8.837 1.99238 8.837 3.83333V6.33333C8.837 8.17428 7.34461 9.66667 5.50366 9.66667H3.837C1.99605 9.66667 0.503662 8.17428 0.503662 6.33333V3.83333C0.503662 1.99238 1.99605 0.5 3.837 0.5Z" stroke="black" stroke-linecap="round" stroke-linejoin="round"/>
<path d="M13.6287 1.33333C13.6287 0.988155 13.3488 0.708333 13.0037 0.708333C12.6585 0.708333 12.3787 0.988155 12.3787 1.33333V3.20833H10.5037C10.1585 3.20833 9.87866 3.48816 9.87866 3.83333C9.87866 4.17851 10.1585 4.45833 10.5037 4.45833H12.3787V6.33333C12.3787 6.67851 12.6585 6.95833 13.0037 6.95833C13.3488 6.95833 13.6287 6.67851 13.6287 6.33333V4.45833H15.5037C15.8488 4.45833 16.1287 4.17851 16.1287 3.83333C16.1287 3.48816 15.8488 3.20833 15.5037 3.20833H13.6287V1.33333Z" stroke="black" stroke-linecap="round" stroke-linejoin="round"/>
<path d="M12.1703 8C10.3294 8 8.837 9.49238 8.837 11.3333V13.8333C8.837 15.6743 10.3294 17.1667 12.1703 17.1667H13.837C15.6779 17.1667 17.1703 15.6743 17.1703 13.8333V11.3333C17.1703 9.49238 15.6779 8 13.837 8H12.1703Z" stroke="black" stroke-linecap="round" stroke-linejoin="round"/>
<path d="M3.64745 10.8803L0.605214 16.053C0.312357 16.5509 0.687877 17.1667 1.28441 17.1667H7.22297C7.81235 17.1667 8.18859 16.5642 7.90996 16.0666L5.01363 10.8938C4.72306 10.3749 3.9492 10.3672 3.64745 10.8803Z" stroke="black" stroke-linecap="round" stroke-linejoin="round"/>
<defs>
<linearGradient id="paint0_linear_998_8008" x1="0.503662" y1="8.83333" x2="17.1703" y2="8.83333" gradientUnits="userSpaceOnUse">
<stop stop-color="#7456C8"/>
<stop offset="0.336538" stop-color="#D783D8"/>
<stop offset="0.692308" stop-color="#FF90A5"/>
<stop offset="1" stop-color="#FF6A56"/>
</linearGradient>
<linearGradient id="paint1_linear_998_8008" x1="0.503662" y1="8.83333" x2="17.1703" y2="8.83333" gradientUnits="userSpaceOnUse">
<stop stop-color="#7456C8"/>
<stop offset="0.336538" stop-color="#D783D8"/>
<stop offset="0.692308" stop-color="#FF90A5"/>
<stop offset="1" stop-color="#FF6A56"/>
</linearGradient>
<linearGradient id="paint2_linear_998_8008" x1="0.503662" y1="8.83333" x2="17.1703" y2="8.83333" gradientUnits="userSpaceOnUse">
<stop stop-color="#7456C8"/>
<stop offset="0.336538" stop-color="#D783D8"/>
<stop offset="0.692308" stop-color="#FF90A5"/>
<stop offset="1" stop-color="#FF6A56"/>
</linearGradient>
<linearGradient id="paint3_linear_998_8008" x1="0.503662" y1="8.83333" x2="17.1703" y2="8.83333" gradientUnits="userSpaceOnUse">
<stop stop-color="#7456C8"/>
<stop offset="0.336538" stop-color="#D783D8"/>
<stop offset="0.692308" stop-color="#FF90A5"/>
<stop offset="1" stop-color="#FF6A56"/>
</linearGradient>
</defs>
</svg>
