<svg width="17" height="17" viewBox="0 0 17 17" fill="none" xmlns="http://www.w3.org/2000/svg">
<path d="M6.25 7.91667C7.17047 7.91667 7.91667 7.17047 7.91667 6.25C7.91667 5.32953 7.17047 4.58333 6.25 4.58333C5.32953 4.58333 4.58333 5.32953 4.58333 6.25C4.58333 7.17047 5.32953 7.91667 6.25 7.91667Z" fill="url(#paint0_linear_1668_6045)"/>
<path fill-rule="evenodd" clip-rule="evenodd" d="M7.99841 0H3.63325C1.62666 0 0 1.62736 0 3.6348V7.63864C0 8.56866 0.35634 9.46331 0.995684 10.1385L6.10286 15.5317C7.48423 16.9904 9.78663 17.0511 11.2428 15.6671L15.5358 11.587C16.9892 10.2057 17.0496 7.90785 15.671 6.45197L10.636 1.13499C9.94985 0.410421 8.99608 0 7.99841 0ZM6.25 9.16667C7.86083 9.16667 9.16667 7.86083 9.16667 6.25C9.16667 4.63917 7.86083 3.33333 6.25 3.33333C4.63917 3.33333 3.33333 4.63917 3.33333 6.25C3.33333 7.86083 4.63917 9.16667 6.25 9.16667ZM9.60861 12.9419L12.9419 9.60861C13.186 9.36453 13.186 8.9688 12.9419 8.72473C12.6979 8.48065 12.3021 8.48065 12.0581 8.72473L8.72473 12.0581C8.48065 12.3021 8.48065 12.6979 8.72473 12.9419C8.9688 13.186 9.36453 13.186 9.60861 12.9419Z" fill="url(#paint1_linear_1668_6045)"/>
<defs>
<linearGradient id="paint0_linear_1668_6045" x1="8.33334" y1="-8.11915e-09" x2="8.33334" y2="16.6667" gradientUnits="userSpaceOnUse">
<stop stop-color="#7456C8"/>
<stop offset="0.365385" stop-color="#D783D8"/>
<stop offset="0.75" stop-color="#FF90A5"/>
<stop offset="1" stop-color="#FF6F5C"/>
</linearGradient>
<linearGradient id="paint1_linear_1668_6045" x1="8.33334" y1="-8.11915e-09" x2="8.33334" y2="16.6667" gradientUnits="userSpaceOnUse">
<stop stop-color="#7456C8"/>
<stop offset="0.365385" stop-color="#D783D8"/>
<stop offset="0.75" stop-color="#FF90A5"/>
<stop offset="1" stop-color="#FF6F5C"/>
</linearGradient>
</defs>
</svg>
