<svg width="87" height="81" viewBox="0 0 87 81" fill="none" xmlns="http://www.w3.org/2000/svg">
<g filter="url(#filter0_f_2281_10694)">
<rect x="8.6001" y="58" width="69" height="14" fill="black" fill-opacity="0.5"/>
</g>
<path d="M74.6001 29.6897L79.6001 21.6897C79.6001 21.6897 80.2824 1.06139 67.2587 0H42.6047H42.5934H17.9395C4.91596 1.06139 5.6001 21.6897 5.6001 21.6897L11.6002 29.6897L4.6001 44.6897L9.55843 61.6897C9.55843 61.6897 11.6001 68.6897 15.6001 68.6897C19.6001 68.6897 20.6001 68.6897 20.6001 68.6897H66.6001C66.6001 68.6897 66.1001 68.6897 69.6001 68.6897C73.1001 68.6897 75.6418 61.6897 75.6418 61.6897L80.6001 44.6897L74.6001 29.6897Z" fill="url(#paint0_linear_2281_10694)"/>
<g opacity="0.2">
<path d="M5.68591 21.6955C6.06092 15.9707 8.02564 3.89096 17.9395 3.08034H42.5934H42.6046H67.2585C77.1726 3.89111 79.1394 15.9753 79.5122 21.6978L79.5912 21.5803C79.5912 21.5803 80.2823 1.06139 67.2587 0H42.6046H42.5934H17.9395C4.91593 1.06139 5.60695 21.5802 5.60695 21.5802L5.68591 21.6955Z" fill="#FBFBFB"/>
</g>
<path d="M75.6001 41.6899L9.6001 41.6845L14.6001 29.6899H71.6001L75.6001 41.6899Z" fill="#2D1F1F"/>
<path d="M71.6 29.6898H14.6L9.35791 22.6899H75.9809L71.6 29.6898Z" fill="#382828"/>
<path opacity="0.1" d="M4.6001 44.6895L6.00641 41.6895L11.6001 29.6895L5.6001 21.6895H8.6001H76.6001H79.6001L74.6001 29.6895L80.6001 44.6895H4.6001Z" fill="black"/>
<path d="M42.1001 59.6895C44.0331 59.6895 45.6001 58.3463 45.6001 56.6895C45.6001 55.0326 44.0331 53.6895 42.1001 53.6895C40.1671 53.6895 38.6001 55.0326 38.6001 56.6895C38.6001 58.3463 40.1671 59.6895 42.1001 59.6895Z" fill="#291C1C"/>
<path d="M41.2996 58.1844C41.6294 57.5245 42.5708 57.5245 42.9006 58.1844L44.5044 61.3935C44.802 61.9888 44.3693 62.6895 43.7039 62.6895H40.4963C39.8309 62.6895 39.3982 61.9888 39.6958 61.3935L41.2996 58.1844Z" fill="#291C1C"/>
<defs>
<filter id="filter0_f_2281_10694" x="9.72748e-05" y="49.4" width="86.2" height="31.2" filterUnits="userSpaceOnUse" color-interpolation-filters="sRGB">
<feFlood flood-opacity="0" result="BackgroundImageFix"/>
<feBlend mode="normal" in="SourceGraphic" in2="BackgroundImageFix" result="shape"/>
<feGaussianBlur stdDeviation="4.3" result="effect1_foregroundBlur_2281_10694"/>
</filter>
<linearGradient id="paint0_linear_2281_10694" x1="42.6001" y1="0" x2="42.6001" y2="68.6897" gradientUnits="userSpaceOnUse">
<stop stop-color="#453835"/>
<stop offset="1" stop-color="#322222"/>
</linearGradient>
</defs>
</svg>
