<svg width="228" height="219" viewBox="0 0 228 219" fill="none" xmlns="http://www.w3.org/2000/svg">
<mask id="path-1-outside-1_888_2523" maskUnits="userSpaceOnUse" x="0" y="0" width="228" height="219" fill="black">
<rect fill="white" width="228" height="219"/>
<path d="M197.355 3C200.81 3 204.183 4.00681 207.067 5.88965L207.638 6.27832L207.855 6.43848C211.543 9.26058 213.962 13.4289 214.583 18.0303C214.693 18.8435 214.743 19.6585 214.739 20.4697C214.827 20.9285 214.875 21.4023 214.875 21.8867V102.746C214.875 104.74 214.081 106.653 212.668 108.061C211.255 109.468 209.338 110.254 207.344 110.246C206.263 110.242 205.197 110.504 204.242 111.011C203.287 111.517 202.472 112.252 201.869 113.149C201.266 114.047 200.894 115.08 200.786 116.155C200.679 117.231 200.839 118.317 201.252 119.316C201.665 120.315 202.319 121.197 203.154 121.883C203.99 122.568 204.984 123.036 206.044 123.246C207.104 123.456 208.201 123.4 209.234 123.084C210.268 122.768 211.209 122.202 211.971 121.436C214.891 118.498 219.64 118.483 222.577 121.403C225.514 124.324 225.528 129.072 222.608 132.01C220.104 134.529 217.015 136.391 213.618 137.43C210.221 138.468 206.62 138.651 203.135 137.962C199.65 137.273 196.388 135.733 193.642 133.48C190.895 131.228 188.748 128.33 187.391 125.048C186.033 121.765 185.508 118.197 185.861 114.662C186.215 111.127 187.436 107.735 189.417 104.786C191.398 101.837 194.076 99.4231 197.215 97.7588C198.076 97.3021 198.966 96.9077 199.875 96.5732V45.0957L151.594 105.378V132.98C151.594 138.14 149.545 143.088 145.896 146.736C142.248 150.384 137.3 152.434 132.141 152.434H102.375V158.527H130.031L130.77 158.536C146.22 158.928 158.625 171.576 158.625 187.121C158.625 202.666 146.22 215.313 130.77 215.705L130.031 215.715H32.2266C32.1537 215.715 32.0812 215.711 32.0088 215.709C31.8707 215.711 31.7323 215.715 31.5938 215.715C15.802 215.715 3.00026 202.913 3 187.121C3 171.329 15.8019 158.527 31.5938 158.527C31.7323 158.527 31.8707 158.53 32.0088 158.532C32.0812 158.53 32.1537 158.527 32.2266 158.527H59.25V152.434H22.4531C17.2939 152.434 12.3454 150.384 8.69727 146.736C5.04921 143.088 3.00013 138.14 3 132.98V93.6055C3 88.4463 5.04925 83.4978 8.69727 79.8496C12.3454 76.2014 17.2938 74.1523 22.4531 74.1523H24.0938V63.5967L19.2969 58.8682C16.3473 55.9602 16.3138 51.2114 19.2217 48.2617C22.1298 45.3121 26.8785 45.2784 29.8281 48.1865L34.8203 53.1084L34.8799 53.168C36.1422 54.4408 37.1573 55.9358 37.875 57.5762L38.0146 57.9062L38.1465 58.2393C38.7774 59.8998 39.0987 61.6633 39.0938 63.4414V74.1523H59.25V42.9805C59.25 38.1943 61.1518 33.6041 64.5361 30.2197C67.9206 26.8353 72.5106 24.9336 77.2969 24.9336H115.125V24.9346C119.009 24.9301 122.791 26.1783 125.909 28.4951C129.029 30.8136 131.318 34.0773 132.434 37.8008L133.705 42.0371L187.239 6.16406V6.16504C190.21 4.10663 193.738 3 197.355 3ZM31.5938 173.527C24.0861 173.527 18 179.613 18 187.121C18.0003 194.628 24.0863 200.715 31.5938 200.715C39.1012 200.715 45.1872 194.628 45.1875 187.121C45.1875 179.613 39.1014 173.527 31.5938 173.527ZM56.7559 173.527C57.7931 175.443 58.6155 177.492 59.1963 179.64C59.3689 179.628 59.5431 179.621 59.7188 179.621H87.8438C91.9859 179.621 95.3438 182.979 95.3438 187.121C95.3435 191.263 91.9857 194.621 87.8438 194.621H59.7188C59.5431 194.621 59.3689 194.612 59.1963 194.601C58.6154 196.749 57.7925 198.798 56.7549 200.715H104.87C102.681 196.672 101.438 192.042 101.438 187.121C101.438 182.201 102.68 177.57 104.869 173.527H56.7559ZM130.031 173.527C122.524 173.527 116.438 179.613 116.438 187.121C116.438 194.628 122.524 200.715 130.031 200.715C137.539 200.715 143.625 194.628 143.625 187.121C143.625 179.613 137.539 173.527 130.031 173.527ZM74.25 158.527H87.375V152.434H74.25V158.527ZM22.4531 89.1523C21.2721 89.1523 20.1398 89.6219 19.3047 90.457C18.4697 91.2921 18 92.4245 18 93.6055V132.98C18.0001 134.161 18.4697 135.294 19.3047 136.129C20.1398 136.964 21.2722 137.434 22.4531 137.434H132.141C133.322 137.434 134.454 136.964 135.289 136.129C136.124 135.294 136.594 134.161 136.594 132.98V108.474L65.7471 89.1523H22.4531ZM102.375 83.5938L133.023 91.9531L118.066 42.1133L118.064 42.1074C117.876 41.4784 117.49 40.9268 116.963 40.5352C116.436 40.1435 115.796 39.9323 115.14 39.9336H102.375V83.5938ZM197.355 18C196.782 18 196.223 18.1788 195.755 18.5107C195.7 18.5495 195.645 18.5877 195.589 18.625L138.216 57.0693L147.171 86.9062L199.235 21.9004C199.632 21.3657 199.807 20.6978 199.718 20.0371C199.633 19.408 199.315 18.8364 198.832 18.4287C198.391 18.1499 197.879 18 197.355 18ZM77.2969 39.9336C76.4888 39.9336 75.714 40.2548 75.1426 40.8262C74.5713 41.3975 74.25 42.1725 74.25 42.9805V75.9238L87.375 79.5029V39.9336H77.2969Z"/>
</mask>
<path d="M197.355 3C200.81 3 204.183 4.00681 207.067 5.88965L207.638 6.27832L207.855 6.43848C211.543 9.26058 213.962 13.4289 214.583 18.0303C214.693 18.8435 214.743 19.6585 214.739 20.4697C214.827 20.9285 214.875 21.4023 214.875 21.8867V102.746C214.875 104.74 214.081 106.653 212.668 108.061C211.255 109.468 209.338 110.254 207.344 110.246C206.263 110.242 205.197 110.504 204.242 111.011C203.287 111.517 202.472 112.252 201.869 113.149C201.266 114.047 200.894 115.08 200.786 116.155C200.679 117.231 200.839 118.317 201.252 119.316C201.665 120.315 202.319 121.197 203.154 121.883C203.99 122.568 204.984 123.036 206.044 123.246C207.104 123.456 208.201 123.4 209.234 123.084C210.268 122.768 211.209 122.202 211.971 121.436C214.891 118.498 219.64 118.483 222.577 121.403C225.514 124.324 225.528 129.072 222.608 132.01C220.104 134.529 217.015 136.391 213.618 137.43C210.221 138.468 206.62 138.651 203.135 137.962C199.65 137.273 196.388 135.733 193.642 133.48C190.895 131.228 188.748 128.33 187.391 125.048C186.033 121.765 185.508 118.197 185.861 114.662C186.215 111.127 187.436 107.735 189.417 104.786C191.398 101.837 194.076 99.4231 197.215 97.7588C198.076 97.3021 198.966 96.9077 199.875 96.5732V45.0957L151.594 105.378V132.98C151.594 138.14 149.545 143.088 145.896 146.736C142.248 150.384 137.3 152.434 132.141 152.434H102.375V158.527H130.031L130.77 158.536C146.22 158.928 158.625 171.576 158.625 187.121C158.625 202.666 146.22 215.313 130.77 215.705L130.031 215.715H32.2266C32.1537 215.715 32.0812 215.711 32.0088 215.709C31.8707 215.711 31.7323 215.715 31.5938 215.715C15.802 215.715 3.00026 202.913 3 187.121C3 171.329 15.8019 158.527 31.5938 158.527C31.7323 158.527 31.8707 158.53 32.0088 158.532C32.0812 158.53 32.1537 158.527 32.2266 158.527H59.25V152.434H22.4531C17.2939 152.434 12.3454 150.384 8.69727 146.736C5.04921 143.088 3.00013 138.14 3 132.98V93.6055C3 88.4463 5.04925 83.4978 8.69727 79.8496C12.3454 76.2014 17.2938 74.1523 22.4531 74.1523H24.0938V63.5967L19.2969 58.8682C16.3473 55.9602 16.3138 51.2114 19.2217 48.2617C22.1298 45.3121 26.8785 45.2784 29.8281 48.1865L34.8203 53.1084L34.8799 53.168C36.1422 54.4408 37.1573 55.9358 37.875 57.5762L38.0146 57.9062L38.1465 58.2393C38.7774 59.8998 39.0987 61.6633 39.0938 63.4414V74.1523H59.25V42.9805C59.25 38.1943 61.1518 33.6041 64.5361 30.2197C67.9206 26.8353 72.5106 24.9336 77.2969 24.9336H115.125V24.9346C119.009 24.9301 122.791 26.1783 125.909 28.4951C129.029 30.8136 131.318 34.0773 132.434 37.8008L133.705 42.0371L187.239 6.16406V6.16504C190.21 4.10663 193.738 3 197.355 3ZM31.5938 173.527C24.0861 173.527 18 179.613 18 187.121C18.0003 194.628 24.0863 200.715 31.5938 200.715C39.1012 200.715 45.1872 194.628 45.1875 187.121C45.1875 179.613 39.1014 173.527 31.5938 173.527ZM56.7559 173.527C57.7931 175.443 58.6155 177.492 59.1963 179.64C59.3689 179.628 59.5431 179.621 59.7188 179.621H87.8438C91.9859 179.621 95.3438 182.979 95.3438 187.121C95.3435 191.263 91.9857 194.621 87.8438 194.621H59.7188C59.5431 194.621 59.3689 194.612 59.1963 194.601C58.6154 196.749 57.7925 198.798 56.7549 200.715H104.87C102.681 196.672 101.438 192.042 101.438 187.121C101.438 182.201 102.68 177.57 104.869 173.527H56.7559ZM130.031 173.527C122.524 173.527 116.438 179.613 116.438 187.121C116.438 194.628 122.524 200.715 130.031 200.715C137.539 200.715 143.625 194.628 143.625 187.121C143.625 179.613 137.539 173.527 130.031 173.527ZM74.25 158.527H87.375V152.434H74.25V158.527ZM22.4531 89.1523C21.2721 89.1523 20.1398 89.6219 19.3047 90.457C18.4697 91.2921 18 92.4245 18 93.6055V132.98C18.0001 134.161 18.4697 135.294 19.3047 136.129C20.1398 136.964 21.2722 137.434 22.4531 137.434H132.141C133.322 137.434 134.454 136.964 135.289 136.129C136.124 135.294 136.594 134.161 136.594 132.98V108.474L65.7471 89.1523H22.4531ZM102.375 83.5938L133.023 91.9531L118.066 42.1133L118.064 42.1074C117.876 41.4784 117.49 40.9268 116.963 40.5352C116.436 40.1435 115.796 39.9323 115.14 39.9336H102.375V83.5938ZM197.355 18C196.782 18 196.223 18.1788 195.755 18.5107C195.7 18.5495 195.645 18.5877 195.589 18.625L138.216 57.0693L147.171 86.9062L199.235 21.9004C199.632 21.3657 199.807 20.6978 199.718 20.0371C199.633 19.408 199.315 18.8364 198.832 18.4287C198.391 18.1499 197.879 18 197.355 18ZM77.2969 39.9336C76.4888 39.9336 75.714 40.2548 75.1426 40.8262C74.5713 41.3975 74.25 42.1725 74.25 42.9805V75.9238L87.375 79.5029V39.9336H77.2969Z" fill="url(#paint0_radial_888_2523)"/>
<path d="M197.355 3V0V3ZM207.067 5.88965L208.757 3.41061C208.74 3.39945 208.724 3.38845 208.707 3.37762L207.067 5.88965ZM207.638 6.27832L209.415 3.86152C209.386 3.84025 209.357 3.8195 209.327 3.79928L207.638 6.27832ZM207.855 6.43848L209.679 4.05621C209.664 4.04455 209.648 4.03304 209.633 4.02168L207.855 6.43848ZM214.583 18.0303L217.556 17.629V17.6289L214.583 18.0303ZM214.739 20.4697L211.739 20.4541C211.738 20.6484 211.756 20.8423 211.793 21.0331L214.739 20.4697ZM214.875 102.746L217.875 102.746V102.746H214.875ZM212.668 108.061L214.785 110.186L214.785 110.186L212.668 108.061ZM207.344 110.246L207.331 113.246H207.331L207.344 110.246ZM204.242 111.011L202.837 108.36L202.837 108.36L204.242 111.011ZM201.869 113.149L199.379 111.477L199.379 111.477L201.869 113.149ZM200.786 116.155L197.801 115.857L197.801 115.857L200.786 116.155ZM201.252 119.316L198.48 120.463L198.48 120.463L201.252 119.316ZM203.154 121.883L201.252 124.202L201.252 124.203L203.154 121.883ZM206.044 123.246L205.462 126.189L205.462 126.189L206.044 123.246ZM209.234 123.084L210.111 125.953L210.111 125.953L209.234 123.084ZM211.971 121.436L214.098 123.551L214.098 123.551L211.971 121.436ZM222.577 121.403L224.692 119.276L224.692 119.276L222.577 121.403ZM222.608 132.01L224.736 134.125L224.736 134.125L222.608 132.01ZM213.618 137.43L214.495 140.299L214.495 140.299L213.618 137.43ZM203.135 137.962L202.553 140.905L202.553 140.905L203.135 137.962ZM193.642 133.48L191.739 135.8L191.739 135.8L193.642 133.48ZM187.391 125.048L184.618 126.194L184.618 126.194L187.391 125.048ZM185.861 114.662L182.876 114.363V114.364L185.861 114.662ZM189.417 104.786L186.927 103.113L186.927 103.113L189.417 104.786ZM197.215 97.7588L195.809 95.1084L195.809 95.1084L197.215 97.7588ZM199.875 96.5732L200.91 99.3889C202.091 98.9549 202.875 97.8308 202.875 96.5732H199.875ZM199.875 45.0957H202.875C202.875 43.8219 202.071 42.6871 200.869 42.2651C199.667 41.8431 198.33 42.2261 197.533 43.2203L199.875 45.0957ZM151.594 105.378L149.252 103.503C148.826 104.035 148.594 104.696 148.594 105.378H151.594ZM151.594 132.98L154.594 132.981V132.98H151.594ZM145.896 146.736L148.018 148.858L148.018 148.858L145.896 146.736ZM132.141 152.434V155.434V152.434ZM102.375 152.434V149.434C100.718 149.434 99.375 150.777 99.375 152.434H102.375ZM102.375 158.527H99.375C99.375 160.184 100.718 161.527 102.375 161.527V158.527ZM130.031 158.527L130.067 155.528C130.055 155.527 130.043 155.527 130.031 155.527V158.527ZM130.77 158.536L130.846 155.537C130.832 155.537 130.819 155.536 130.805 155.536L130.77 158.536ZM158.625 187.121L161.625 187.121V187.121H158.625ZM130.77 215.705L130.809 218.705C130.821 218.705 130.833 218.704 130.846 218.704L130.77 215.705ZM130.031 215.715V218.715C130.044 218.715 130.058 218.715 130.071 218.715L130.031 215.715ZM32.0088 215.709L32.0943 212.71C32.0516 212.709 32.0088 212.709 31.9661 212.709L32.0088 215.709ZM3 187.121H0V187.121L3 187.121ZM32.0088 158.532L31.9661 161.532C32.0088 161.533 32.0516 161.532 32.0943 161.531L32.0088 158.532ZM59.25 158.527V161.527C60.9069 161.527 62.25 160.184 62.25 158.527H59.25ZM59.25 152.434H62.25C62.25 150.777 60.9069 149.434 59.25 149.434V152.434ZM8.69727 146.736L6.57594 148.858L6.57598 148.858L8.69727 146.736ZM3 132.98H0V132.981L3 132.98ZM8.69727 79.8496L6.57595 77.7283L6.57591 77.7283L8.69727 79.8496ZM24.0938 74.1523V77.1523C25.7506 77.1523 27.0938 75.8092 27.0938 74.1523H24.0938ZM24.0938 63.5967H27.0938C27.0938 62.7936 26.7717 62.024 26.1998 61.4602L24.0938 63.5967ZM19.2969 58.8682L17.1906 61.0045L17.1908 61.0047L19.2969 58.8682ZM19.2217 48.2617L17.0854 46.1555L17.0853 46.1556L19.2217 48.2617ZM29.8281 48.1865L31.9343 46.0502L29.8281 48.1865ZM34.8203 53.1084L36.9416 50.9871C36.9366 50.9821 36.9316 50.9771 36.9265 50.9721L34.8203 53.1084ZM34.8799 53.168L37.01 51.0554L37.0012 51.0466L34.8799 53.168ZM37.875 57.5762L40.6379 56.4073C40.6332 56.396 40.6283 56.3848 40.6234 56.3736L37.875 57.5762ZM38.0146 57.9062L40.804 56.802C40.7954 56.7803 40.7866 56.7588 40.7775 56.7373L38.0146 57.9062ZM38.1465 58.2393L40.9509 57.1738C40.946 57.1608 40.941 57.1479 40.9358 57.135L38.1465 58.2393ZM39.0938 63.4414L36.0938 63.433V63.4414H39.0938ZM39.0938 74.1523H36.0938C36.0938 75.8092 37.4369 77.1523 39.0938 77.1523V74.1523ZM59.25 74.1523V77.1523C60.9069 77.1523 62.25 75.8092 62.25 74.1523H59.25ZM59.25 42.9805L56.25 42.9805V42.9805H59.25ZM64.5361 30.2197L62.4148 28.0984L62.4148 28.0984L64.5361 30.2197ZM115.125 24.9336H118.125C118.125 23.2767 116.782 21.9336 115.125 21.9336V24.9336ZM115.125 24.9346H112.125C112.125 25.7308 112.442 26.4944 113.005 27.0571C113.568 27.6198 114.332 27.9355 115.128 27.9346L115.125 24.9346ZM125.909 28.4951L127.698 26.0871L127.698 26.0871L125.909 28.4951ZM132.434 37.8008L129.56 38.6618L129.56 38.6632L132.434 37.8008ZM133.705 42.0371L130.832 42.8995C131.105 43.8115 131.796 44.5394 132.692 44.8609C133.588 45.1824 134.584 45.0594 135.375 44.5293L133.705 42.0371ZM187.239 6.16406H190.239C190.239 5.0564 189.629 4.03886 188.652 3.51736C187.674 2.99586 186.489 3.05526 185.569 3.67186L187.239 6.16406ZM187.239 6.16504H184.239C184.239 7.28108 184.859 8.30487 185.847 8.82264C186.836 9.34042 188.03 9.26657 188.948 8.63096L187.239 6.16504ZM18 187.121H15V187.121L18 187.121ZM45.1875 187.121L48.1875 187.121V187.121H45.1875ZM56.7559 173.527V170.527C55.6987 170.527 54.7196 171.084 54.1786 171.992C53.6375 172.9 53.6144 174.026 54.1177 174.956L56.7559 173.527ZM59.1963 179.64L56.3003 180.423C56.6741 181.805 57.9733 182.731 59.4023 182.633L59.1963 179.64ZM95.3438 187.121L98.3438 187.121V187.121H95.3438ZM59.1963 194.601L59.4023 191.608C57.9733 191.509 56.6741 192.435 56.3002 193.818L59.1963 194.601ZM56.7549 200.715L54.1167 199.286C53.6134 200.216 53.6365 201.342 54.1776 202.25C54.7186 203.158 55.6977 203.715 56.7549 203.715V200.715ZM104.87 200.715V203.715C105.927 203.715 106.906 203.158 107.447 202.25C107.988 201.342 108.012 200.216 107.508 199.286L104.87 200.715ZM101.438 187.121H98.4375V187.121L101.438 187.121ZM104.869 173.527L107.507 174.956C108.011 174.026 107.987 172.9 107.446 171.992C106.905 171.084 105.926 170.527 104.869 170.527V173.527ZM116.438 187.121H113.438V187.121L116.438 187.121ZM143.625 187.121L146.625 187.121V187.121H143.625ZM74.25 158.527H71.25C71.25 160.184 72.5931 161.527 74.25 161.527V158.527ZM87.375 158.527V161.527C89.0319 161.527 90.375 160.184 90.375 158.527H87.375ZM87.375 152.434H90.375C90.375 150.777 89.0319 149.434 87.375 149.434V152.434ZM74.25 152.434V149.434C72.5931 149.434 71.25 150.777 71.25 152.434H74.25ZM19.3047 90.457L17.1834 88.3357L17.1832 88.3359L19.3047 90.457ZM18 132.98H15V132.981L18 132.98ZM19.3047 136.129L17.1834 138.25L17.1835 138.25L19.3047 136.129ZM132.141 137.434V140.434V137.434ZM135.289 136.129L137.41 138.25L137.41 138.25L135.289 136.129ZM136.594 132.98L139.594 132.981V132.98H136.594ZM136.594 108.474H139.594C139.594 107.121 138.688 105.935 137.383 105.579L136.594 108.474ZM65.7471 89.1523L66.5364 86.258C66.2792 86.1879 66.0137 86.1523 65.7471 86.1523V89.1523ZM102.375 83.5938H99.375C99.375 84.9466 100.28 86.132 101.586 86.488L102.375 83.5938ZM133.023 91.9531L132.234 94.8474C133.286 95.1343 134.41 94.828 135.171 94.0475C135.932 93.2669 136.21 92.135 135.897 91.0908L133.023 91.9531ZM118.066 42.1133L120.94 41.251C120.931 41.222 120.922 41.1932 120.912 41.1646L118.066 42.1133ZM118.064 42.1074L115.19 42.9674C115.199 42.9971 115.209 43.0267 115.218 43.0561L118.064 42.1074ZM116.963 40.5352L118.752 38.1274L118.752 38.1272L116.963 40.5352ZM115.14 39.9336V42.9336L115.146 42.9336L115.14 39.9336ZM102.375 39.9336V36.9336C100.718 36.9336 99.375 38.2767 99.375 39.9336H102.375ZM197.355 18V15H197.355L197.355 18ZM195.755 18.5107L194.019 16.0643L194.019 16.0643L195.755 18.5107ZM195.589 18.625L197.259 21.1172L197.259 21.1172L195.589 18.625ZM138.216 57.0693L136.546 54.5771C135.452 55.3101 134.964 56.6706 135.342 57.9317L138.216 57.0693ZM147.171 86.9062L144.298 87.7686C144.618 88.8365 145.504 89.6386 146.599 89.8512C147.693 90.0638 148.815 89.6519 149.512 88.7816L147.171 86.9062ZM199.235 21.9004L201.577 23.7758C201.6 23.7472 201.622 23.7183 201.644 23.6889L199.235 21.9004ZM199.718 20.0371L202.691 19.6363L202.691 19.6358L199.718 20.0371ZM198.832 18.4287L200.767 16.1364C200.662 16.0476 200.551 15.9661 200.435 15.8926L198.832 18.4287ZM75.1426 40.8262L73.0213 38.7048L73.021 38.7051L75.1426 40.8262ZM74.25 42.9805L71.25 42.9804V42.9805H74.25ZM74.25 75.9238H71.25C71.25 77.2767 72.1555 78.4622 73.4607 78.8181L74.25 75.9238ZM87.375 79.5029L86.5857 82.3972C87.4878 82.6432 88.453 82.4546 89.196 81.887C89.9391 81.3195 90.375 80.4379 90.375 79.5029H87.375ZM87.375 39.9336H90.375C90.375 38.2767 89.0319 36.9336 87.375 36.9336V39.9336ZM197.355 3V6C200.226 6 203.03 6.83678 205.427 8.40167L207.067 5.88965L208.707 3.37762C205.337 1.17683 201.393 0 197.355 0V3ZM207.067 5.88965L205.378 8.36869L205.948 8.75736L207.638 6.27832L209.327 3.79928L208.757 3.41061L207.067 5.88965ZM207.638 6.27832L205.86 8.69512L206.078 8.85528L207.855 6.43848L209.633 4.02168L209.415 3.86152L207.638 6.27832ZM207.855 6.43848L206.032 8.82075C209.089 11.1606 211.095 14.6166 211.61 18.4316L214.583 18.0303L217.556 17.6289C216.829 12.2411 213.996 7.36055 209.679 4.05621L207.855 6.43848ZM214.583 18.0303L211.61 18.4316C211.701 19.1028 211.743 19.7784 211.739 20.4541L214.739 20.4697L217.739 20.4854C217.744 19.5386 217.685 18.5842 217.556 17.629L214.583 18.0303ZM214.739 20.4697L211.793 21.0331C211.847 21.3159 211.875 21.601 211.875 21.8867H214.875H217.875C217.875 21.2037 217.807 20.5411 217.686 19.9064L214.739 20.4697ZM214.875 21.8867H211.875V102.746H214.875H217.875V21.8867H214.875ZM214.875 102.746L211.875 102.746C211.875 103.943 211.398 105.091 210.551 105.935L212.668 108.061L214.785 110.186C216.764 108.215 217.875 105.537 217.875 102.746L214.875 102.746ZM212.668 108.061L210.551 105.935C209.703 106.779 208.553 107.251 207.356 107.246L207.344 110.246L207.331 113.246C210.123 113.258 212.806 112.157 214.785 110.186L212.668 108.061ZM207.344 110.246L207.356 107.246C205.781 107.24 204.228 107.622 202.837 108.36L204.242 111.011L205.648 113.661C206.166 113.386 206.745 113.244 207.331 113.246L207.344 110.246ZM204.242 111.011L202.837 108.36C201.445 109.099 200.257 110.169 199.379 111.477L201.869 113.149L204.359 114.822C204.687 114.335 205.129 113.936 205.648 113.661L204.242 111.011ZM201.869 113.149L199.379 111.477C198.501 112.783 197.958 114.288 197.801 115.857L200.786 116.155L203.771 116.454C203.829 115.871 204.031 115.311 204.36 114.822L201.869 113.149ZM200.786 116.155L197.801 115.857C197.644 117.425 197.878 119.007 198.48 120.463L201.252 119.316L204.024 118.17C203.8 117.627 203.713 117.037 203.771 116.454L200.786 116.155ZM201.252 119.316L198.48 120.463C199.081 121.918 200.033 123.203 201.252 124.202L203.154 121.883L205.057 119.563C204.604 119.192 204.249 118.713 204.024 118.17L201.252 119.316ZM203.154 121.883L201.252 124.203C202.471 125.202 203.918 125.884 205.462 126.189L206.044 123.246L206.626 120.303C206.049 120.189 205.509 119.934 205.057 119.563L203.154 121.883ZM206.044 123.246L205.462 126.189C207.008 126.494 208.605 126.413 210.111 125.953L209.234 123.084L208.358 120.215C207.796 120.386 207.201 120.417 206.625 120.303L206.044 123.246ZM209.234 123.084L210.111 125.953C211.616 125.493 212.986 124.669 214.098 123.551L211.971 121.436L209.843 119.32C209.431 119.735 208.92 120.043 208.357 120.215L209.234 123.084ZM211.971 121.436L214.098 123.551C215.851 121.788 218.7 121.779 220.462 123.531L222.577 121.403L224.692 119.276C220.579 115.187 213.931 115.208 209.843 119.321L211.971 121.436ZM222.577 121.403L220.462 123.531C222.224 125.283 222.233 128.132 220.481 129.895L222.608 132.01L224.736 134.125C228.824 130.012 228.804 123.364 224.692 119.276L222.577 121.403ZM222.608 132.01L220.481 129.895C218.325 132.064 215.666 133.667 212.741 134.561L213.618 137.43L214.495 140.299C218.365 139.116 221.883 136.994 224.736 134.125L222.608 132.01ZM213.618 137.43L212.741 134.561C209.817 135.454 206.716 135.612 203.716 135.019L203.135 137.962L202.553 140.905C206.523 141.69 210.625 141.481 214.495 140.299L213.618 137.43ZM203.135 137.962L203.717 135.019C200.717 134.426 197.909 133.1 195.544 131.161L193.642 133.48L191.739 135.8C194.868 138.366 198.583 140.12 202.553 140.905L203.135 137.962ZM193.642 133.48L195.544 131.161C193.18 129.222 191.332 126.728 190.163 123.901L187.391 125.048L184.618 126.194C186.164 129.933 188.61 133.234 191.739 135.8L193.642 133.48ZM187.391 125.048L190.163 123.902C188.994 121.076 188.542 118.004 188.846 114.961L185.861 114.662L182.876 114.364C182.474 118.39 183.072 122.455 184.618 126.194L187.391 125.048ZM185.861 114.662L188.846 114.961C189.151 111.918 190.202 108.997 191.907 106.459L189.417 104.786L186.927 103.113C184.67 106.473 183.279 110.337 182.876 114.363L185.861 114.662ZM189.417 104.786L191.907 106.459C193.613 103.92 195.919 101.842 198.62 100.409L197.215 97.7588L195.809 95.1084C192.234 97.0042 189.183 99.7542 186.927 103.113L189.417 104.786ZM197.215 97.7588L198.62 100.409C199.358 100.018 200.123 99.6783 200.91 99.3889L199.875 96.5732L198.84 93.7576C197.808 94.137 196.794 94.5861 195.809 95.1084L197.215 97.7588ZM199.875 96.5732H202.875V45.0957H199.875H196.875V96.5732H199.875ZM199.875 45.0957L197.533 43.2203L149.252 103.503L151.594 105.378L153.935 107.253L202.217 46.9711L199.875 45.0957ZM151.594 105.378H148.594V132.98H151.594H154.594V105.378H151.594ZM151.594 132.98L148.594 132.98C148.594 137.344 146.86 141.53 143.775 144.615L145.896 146.736L148.018 148.858C152.229 144.647 154.594 138.935 154.594 132.981L151.594 132.98ZM145.896 146.736L143.775 144.615C140.69 147.7 136.504 149.434 132.141 149.434V152.434V155.434C138.095 155.434 143.807 153.068 148.018 148.858L145.896 146.736ZM132.141 152.434V149.434H102.375V152.434V155.434H132.141V152.434ZM102.375 152.434H99.375V158.527H102.375H105.375V152.434H102.375ZM102.375 158.527V161.527H130.031V158.527V155.527H102.375V158.527ZM130.031 158.527L129.996 161.527L130.734 161.536L130.77 158.536L130.805 155.536L130.067 155.528L130.031 158.527ZM130.77 158.536L130.694 161.535C144.522 161.886 155.625 173.207 155.625 187.121H158.625H161.625C161.625 169.945 147.919 155.97 130.846 155.537L130.77 158.536ZM158.625 187.121L155.625 187.121C155.625 201.035 144.521 212.356 130.694 212.706L130.77 215.705L130.846 218.704C147.919 218.271 161.625 204.297 161.625 187.121L158.625 187.121ZM130.77 215.705L130.73 212.705L129.992 212.715L130.031 215.715L130.071 218.715L130.809 218.705L130.77 215.705ZM130.031 215.715V212.715H32.2266V215.715V218.715H130.031V215.715ZM32.2266 215.715V212.715C32.2396 212.715 32.2418 212.715 32.2172 212.714C32.2039 212.714 32.1928 212.713 32.17 212.713C32.1504 212.712 32.1235 212.711 32.0943 212.71L32.0088 215.709L31.9233 218.708C31.9549 218.709 31.9479 218.709 32.0178 218.711C32.0657 218.713 32.1407 218.715 32.2266 218.715V215.715ZM32.0088 215.709L31.9661 212.709C31.7691 212.712 31.7071 212.715 31.5938 212.715V215.715V218.715C31.7576 218.715 31.9722 218.71 32.0515 218.709L32.0088 215.709ZM31.5938 215.715V212.715C17.4589 212.715 6.00024 201.256 6 187.121L3 187.121L0 187.121C0.000291586 204.57 14.1451 218.715 31.5938 218.715V215.715ZM3 187.121H6C6 172.986 17.4587 161.527 31.5938 161.527V158.527V155.527C14.145 155.527 0 169.672 0 187.121H3ZM31.5938 158.527V161.527C31.7039 161.527 31.8006 161.53 31.9661 161.532L32.0088 158.532L32.0515 155.533C31.9407 155.531 31.7608 155.527 31.5938 155.527V158.527ZM32.0088 158.532L32.0943 161.531C32.1164 161.53 32.1389 161.53 32.1549 161.529C32.1726 161.529 32.1855 161.528 32.197 161.528C32.2204 161.527 32.2275 161.527 32.2266 161.527V158.527V155.527C32.0972 155.527 31.954 155.533 31.9233 155.533L32.0088 158.532ZM32.2266 158.527V161.527H59.25V158.527V155.527H32.2266V158.527ZM59.25 158.527H62.25V152.434H59.25H56.25V158.527H59.25ZM59.25 152.434V149.434H22.4531V152.434V155.434H59.25V152.434ZM22.4531 152.434V149.434C18.0894 149.434 13.904 147.7 10.8185 144.615L8.69727 146.736L6.57598 148.858C10.7869 153.068 16.4985 155.434 22.4531 155.434V152.434ZM8.69727 146.736L10.8186 144.615C7.73335 141.53 6.00011 137.344 6 132.98L3 132.98L0 132.981C0.000150442 138.935 2.36508 144.647 6.57594 148.858L8.69727 146.736ZM3 132.98H6V93.6055H3H0V132.98H3ZM3 93.6055H6C6 89.2417 7.73332 85.0563 10.8186 81.9709L8.69727 79.8496L6.57591 77.7283C2.36518 81.9392 0 87.6508 0 93.6055H3ZM8.69727 79.8496L10.8186 81.9709C13.904 78.8855 18.0893 77.1523 22.4531 77.1523V74.1523V71.1523C16.4984 71.1523 10.7869 73.5173 6.57595 77.7283L8.69727 79.8496ZM22.4531 74.1523V77.1523H24.0938V74.1523V71.1523H22.4531V74.1523ZM24.0938 74.1523H27.0938V63.5967H24.0938H21.0938V74.1523H24.0938ZM24.0938 63.5967L26.1998 61.4602L21.4029 56.7317L19.2969 58.8682L17.1908 61.0047L21.9877 65.7332L24.0938 63.5967ZM19.2969 58.8682L21.4031 56.7319C19.6335 54.9872 19.6133 52.1378 21.3581 50.3678L19.2217 48.2617L17.0853 46.1556C13.0144 50.285 13.0612 56.9331 17.1906 61.0045L19.2969 58.8682ZM19.2217 48.2617L21.358 50.3679C23.1028 48.5982 25.9521 48.578 27.7219 50.3228L29.8281 48.1865L31.9343 46.0502C27.8049 41.9789 21.1567 42.026 17.0854 46.1555L19.2217 48.2617ZM29.8281 48.1865L27.7219 50.3228L32.7141 55.2447L34.8203 53.1084L36.9265 50.9721L31.9343 46.0502L29.8281 48.1865ZM34.8203 53.1084L32.699 55.2297L32.7586 55.2893L34.8799 53.168L37.0012 51.0466L36.9416 50.9871L34.8203 53.1084ZM34.8799 53.168L32.7498 55.2805C33.7513 56.2903 34.5569 57.4767 35.1266 58.7787L37.875 57.5762L40.6234 56.3736C39.7577 54.3949 38.5331 52.5912 37.01 51.0554L34.8799 53.168ZM37.875 57.5762L35.1121 58.7451L35.2517 59.0752L38.0146 57.9062L40.7775 56.7373L40.6379 56.4073L37.875 57.5762ZM38.0146 57.9062L35.2253 59.0105L35.3571 59.3436L38.1465 58.2393L40.9358 57.135L40.804 56.802L38.0146 57.9062ZM38.1465 58.2393L35.3421 59.3048C35.8427 60.6223 36.0977 62.0218 36.0938 63.433L39.0938 63.4414L42.0937 63.4498C42.0997 61.3048 41.7121 59.1773 40.9509 57.1738L38.1465 58.2393ZM39.0938 63.4414H36.0938V74.1523H39.0938H42.0938V63.4414H39.0938ZM39.0938 74.1523V77.1523H59.25V74.1523V71.1523H39.0938V74.1523ZM59.25 74.1523H62.25V42.9805H59.25H56.25V74.1523H59.25ZM59.25 42.9805L62.25 42.9805C62.25 38.9902 63.8356 35.163 66.6575 32.341L64.5361 30.2197L62.4148 28.0984C58.4681 32.0453 56.25 37.3984 56.25 42.9805L59.25 42.9805ZM64.5361 30.2197L66.6575 32.341C69.4794 29.5191 73.3064 27.9336 77.2969 27.9336V24.9336V21.9336C71.7147 21.9336 66.3617 24.1515 62.4148 28.0984L64.5361 30.2197ZM77.2969 24.9336V27.9336H115.125V24.9336V21.9336H77.2969V24.9336ZM115.125 24.9336H112.125V24.9346H115.125H118.125V24.9336H115.125ZM115.125 24.9346L115.128 27.9346C118.367 27.9308 121.52 28.9716 124.12 30.9031L125.909 28.4951L127.698 26.0871C124.062 23.385 119.651 21.9294 115.122 21.9346L115.125 24.9346ZM125.909 28.4951L124.12 30.9031C126.722 32.8364 128.63 35.5576 129.56 38.6618L132.434 37.8008L135.307 36.9398C134.006 32.5969 131.337 28.7908 127.698 26.0871L125.909 28.4951ZM132.434 37.8008L129.56 38.6632L130.832 42.8995L133.705 42.0371L136.578 41.1747L135.307 36.9384L132.434 37.8008ZM133.705 42.0371L135.375 44.5293L188.909 8.65626L187.239 6.16406L185.569 3.67186L132.035 39.5449L133.705 42.0371ZM187.239 6.16406H184.239V6.16504H187.239H190.239V6.16406H187.239ZM187.239 6.16504L188.948 8.63096C191.418 6.91924 194.351 6 197.355 6V3V0C193.126 1.90735e-06 189.002 1.29402 185.531 3.69911L187.239 6.16504ZM31.5938 173.527V170.527C22.4293 170.527 15 177.957 15 187.121H18H21C21 181.27 25.743 176.527 31.5938 176.527V173.527ZM18 187.121L15 187.121C15.0003 196.285 22.4293 203.715 31.5938 203.715V200.715V197.715C25.7433 197.715 21.0002 192.972 21 187.121L18 187.121ZM31.5938 200.715V203.715C40.7582 203.715 48.1872 196.285 48.1875 187.121L45.1875 187.121L42.1875 187.121C42.1873 192.972 37.4442 197.715 31.5938 197.715V200.715ZM45.1875 187.121H48.1875C48.1875 177.957 40.7582 170.527 31.5938 170.527V173.527V176.527C37.4445 176.527 42.1875 181.27 42.1875 187.121H45.1875ZM56.7559 173.527L54.1177 174.956C55.0447 176.668 55.7804 178.5 56.3003 180.423L59.1963 179.64L62.0923 178.857C61.4506 176.483 60.5415 174.219 59.3941 172.099L56.7559 173.527ZM59.1963 179.64L59.4023 182.633C59.5139 182.625 59.619 182.621 59.7188 182.621V179.621V176.621C59.4672 176.621 59.224 176.631 58.9903 176.647L59.1963 179.64ZM59.7188 179.621V182.621H87.8438V179.621V176.621H59.7188V179.621ZM87.8438 179.621V182.621C90.329 182.621 92.3438 184.636 92.3438 187.121H95.3438H98.3438C98.3438 181.322 93.6427 176.621 87.8438 176.621V179.621ZM95.3438 187.121L92.3438 187.121C92.3436 189.606 90.3287 191.621 87.8438 191.621V194.621V197.621C93.6428 197.621 98.3434 192.92 98.3438 187.121L95.3438 187.121ZM87.8438 194.621V191.621H59.7188V194.621V197.621H87.8438V194.621ZM59.7188 194.621V191.621C59.6383 191.621 59.5393 191.617 59.4023 191.608L59.1963 194.601L58.9903 197.594C59.1986 197.608 59.4478 197.621 59.7188 197.621V194.621ZM59.1963 194.601L56.3002 193.818C55.7803 195.741 55.0442 197.573 54.1167 199.286L56.7549 200.715L59.393 202.143C60.5409 200.023 61.4505 197.758 62.0923 195.383L59.1963 194.601ZM56.7549 200.715V203.715H104.87V200.715V197.715H56.7549V200.715ZM104.87 200.715L107.508 199.286C105.551 195.671 104.438 191.53 104.438 187.121L101.438 187.121L98.4375 187.121C98.4376 192.553 99.8114 197.673 102.232 202.143L104.87 200.715ZM101.438 187.121H104.438C104.438 182.712 105.55 178.571 107.507 174.956L104.869 173.527L102.231 172.099C99.8107 176.57 98.4375 181.69 98.4375 187.121H101.438ZM104.869 173.527V170.527H56.7559V173.527V176.527H104.869V173.527ZM130.031 173.527V170.527C120.867 170.527 113.438 177.957 113.438 187.121H116.438H119.438C119.438 181.27 124.18 176.527 130.031 176.527V173.527ZM116.438 187.121L113.438 187.121C113.438 196.285 120.867 203.715 130.031 203.715V200.715V197.715C124.181 197.715 119.438 192.972 119.438 187.121L116.438 187.121ZM130.031 200.715V203.715C139.196 203.715 146.625 196.285 146.625 187.121L143.625 187.121L140.625 187.121C140.625 192.972 135.882 197.715 130.031 197.715V200.715ZM143.625 187.121H146.625C146.625 177.957 139.196 170.527 130.031 170.527V173.527V176.527C135.882 176.527 140.625 181.27 140.625 187.121H143.625ZM74.25 158.527V161.527H87.375V158.527V155.527H74.25V158.527ZM87.375 158.527H90.375V152.434H87.375H84.375V158.527H87.375ZM87.375 152.434V149.434H74.25V152.434V155.434H87.375V152.434ZM74.25 152.434H71.25V158.527H74.25H77.25V152.434H74.25ZM22.4531 89.1523V86.1523C20.4755 86.1523 18.5804 86.9387 17.1834 88.3357L19.3047 90.457L21.426 92.5784C21.6992 92.3052 22.0687 92.1523 22.4531 92.1523V89.1523ZM19.3047 90.457L17.1832 88.3359C15.7866 89.7327 15 91.6278 15 93.6055H18H21C21 93.2213 21.1528 92.8516 21.4262 92.5782L19.3047 90.457ZM18 93.6055H15V132.98H18H21V93.6055H18ZM18 132.98L15 132.981C15.0002 134.958 15.7863 136.853 17.1834 138.25L19.3047 136.129L21.426 134.008C21.1531 133.735 21 133.365 21 132.98L18 132.98ZM19.3047 136.129L17.1835 138.25C18.5804 139.647 20.4754 140.434 22.4531 140.434V137.434V134.434C22.069 134.434 21.6992 134.281 21.4258 134.007L19.3047 136.129ZM22.4531 137.434V140.434H132.141V137.434V134.434H22.4531V137.434ZM132.141 137.434V140.434C134.118 140.434 136.013 139.647 137.41 138.25L135.289 136.129L133.168 134.007C132.895 134.281 132.525 134.434 132.141 134.434V137.434ZM135.289 136.129L137.41 138.25C138.807 136.853 139.594 134.958 139.594 132.981L136.594 132.98L133.594 132.98C133.594 133.365 133.441 133.735 133.168 134.008L135.289 136.129ZM136.594 132.98H139.594V108.474H136.594H133.594V132.98H136.594ZM136.594 108.474L137.383 105.579L66.5364 86.258L65.7471 89.1523L64.9577 92.0466L135.804 111.368L136.594 108.474ZM65.7471 89.1523V86.1523H22.4531V89.1523V92.1523H65.7471V89.1523ZM102.375 83.5938L101.586 86.488L132.234 94.8474L133.023 91.9531L133.813 89.0589L103.164 80.6995L102.375 83.5938ZM133.023 91.9531L135.897 91.0908L120.94 41.251L118.066 42.1133L115.193 42.9756L130.15 92.8154L133.023 91.9531ZM118.066 42.1133L120.912 41.1646L120.91 41.1587L118.064 42.1074L115.218 43.0561L115.22 43.062L118.066 42.1133ZM118.064 42.1074L120.939 41.2474C120.565 39.9994 119.798 38.9048 118.752 38.1274L116.963 40.5352L115.173 42.9429C115.181 42.9488 115.187 42.9575 115.19 42.9674L118.064 42.1074ZM116.963 40.5352L118.752 38.1272C117.707 37.3505 116.438 36.931 115.134 36.9336L115.14 39.9336L115.146 42.9336C115.155 42.9336 115.165 42.9365 115.174 42.9432L116.963 40.5352ZM115.14 39.9336V36.9336H102.375V39.9336V42.9336H115.14V39.9336ZM102.375 39.9336H99.375V83.5938H102.375H105.375V39.9336H102.375ZM197.355 18L197.355 15C196.158 15 194.992 15.3732 194.019 16.0643L195.755 18.5107L197.491 20.9572C197.453 20.9844 197.406 21 197.355 21L197.355 18ZM195.755 18.5107L194.019 16.0643C193.99 16.0842 193.958 16.1068 193.919 16.1328L195.589 18.625L197.259 21.1172C197.331 21.0685 197.41 21.0149 197.491 20.9572L195.755 18.5107ZM195.589 18.625L193.919 16.1328L136.546 54.5771L138.216 57.0693L139.886 59.5616L197.259 21.1172L195.589 18.625ZM138.216 57.0693L135.342 57.9317L144.298 87.7686L147.171 86.9062L150.044 86.0439L141.089 56.2069L138.216 57.0693ZM147.171 86.9062L149.512 88.7816L201.577 23.7758L199.235 21.9004L196.894 20.025L144.829 85.0309L147.171 86.9062ZM199.235 21.9004L201.644 23.6889C202.503 22.5314 202.885 21.0791 202.691 19.6363L199.718 20.0371L196.745 20.4379C196.728 20.3165 196.761 20.2 196.827 20.1119L199.235 21.9004ZM199.718 20.0371L202.691 19.6358C202.505 18.2586 201.81 17.0168 200.767 16.1364L198.832 18.4287L196.897 20.721C196.82 20.6559 196.761 20.5575 196.745 20.4385L199.718 20.0371ZM198.832 18.4287L200.435 15.8926C199.519 15.3141 198.453 15 197.355 15V18V21C197.306 21 197.263 20.9858 197.23 20.9649L198.832 18.4287ZM77.2969 39.9336V36.9336C75.6925 36.9336 74.1548 37.5713 73.0213 38.7048L75.1426 40.8262L77.2639 42.9475C77.2731 42.9383 77.2851 42.9336 77.2969 42.9336V39.9336ZM75.1426 40.8262L73.021 38.7051C71.888 39.8384 71.25 41.376 71.25 42.9804L74.25 42.9805L77.25 42.9805C77.25 42.969 77.2547 42.9567 77.2641 42.9473L75.1426 40.8262ZM74.25 42.9805H71.25V75.9238H74.25H77.25V42.9805H74.25ZM74.25 75.9238L73.4607 78.8181L86.5857 82.3972L87.375 79.5029L88.1643 76.6086L75.0393 73.0295L74.25 75.9238ZM87.375 79.5029H90.375V39.9336H87.375H84.375V79.5029H87.375ZM87.375 39.9336V36.9336H77.2969V39.9336V42.9336H87.375V39.9336Z" fill="url(#paint1_linear_888_2523)" mask="url(#path-1-outside-1_888_2523)"/>
<defs>
<radialGradient id="paint0_radial_888_2523" cx="0" cy="0" r="1" gradientUnits="userSpaceOnUse" gradientTransform="translate(113.895 3) rotate(90) scale(212.715 291.169)">
<stop stop-color="#443570"/>
<stop offset="0.153737" stop-color="#443045"/>
<stop offset="0.320456" stop-color="#2F2229"/>
<stop offset="0.622633" stop-color="#0F0E11"/>
</radialGradient>
<linearGradient id="paint1_linear_888_2523" x1="113.895" y1="3" x2="113.895" y2="215.715" gradientUnits="userSpaceOnUse">
<stop stop-color="#7456C8"/>
<stop offset="0.365385" stop-color="#D783D8"/>
<stop offset="0.75" stop-color="#FF90A5"/>
<stop offset="1" stop-color="#FF6F5C"/>
</linearGradient>
</defs>
</svg>
