<svg width="20" height="20" viewBox="0 0 20 20" fill="none" xmlns="http://www.w3.org/2000/svg">
<path fill-rule="evenodd" clip-rule="evenodd" d="M9.99999 18.3334C14.6024 18.3334 18.3333 14.6025 18.3333 10.0001C18.3333 5.39771 14.6024 1.66675 9.99999 1.66675C5.39762 1.66675 1.66666 5.39771 1.66666 10.0001C1.66666 14.6025 5.39762 18.3334 9.99999 18.3334ZM6.90576 13.0247C7.3036 13.7578 8.23771 15.0001 9.99999 15.0001C11.7623 15.0001 12.6964 13.7578 13.0942 13.0247C13.2299 12.7747 13.0396 12.5001 12.7552 12.5001H7.24475C6.96035 12.5001 6.77012 12.7747 6.90576 13.0247ZM8.33332 7.91675C8.33332 8.6071 7.77368 9.16675 7.08332 9.16675C6.39297 9.16675 5.83332 8.6071 5.83332 7.91675C5.83332 7.22639 6.39297 6.66675 7.08332 6.66675C7.77368 6.66675 8.33332 7.22639 8.33332 7.91675ZM12.9167 9.16675C13.607 9.16675 14.1667 8.6071 14.1667 7.91675C14.1667 7.22639 13.607 6.66675 12.9167 6.66675C12.2263 6.66675 11.6667 7.22639 11.6667 7.91675C11.6667 8.6071 12.2263 9.16675 12.9167 9.16675Z" fill="url(#paint0_linear_983_4034)"/>
<defs>
<linearGradient id="paint0_linear_983_4034" x1="9.99999" y1="1.66675" x2="9.99999" y2="18.3334" gradientUnits="userSpaceOnUse">
<stop stop-color="#7456C8"/>
<stop offset="0.365385" stop-color="#D783D8"/>
<stop offset="0.75" stop-color="#FF90A5"/>
<stop offset="1" stop-color="#FF6F5C"/>
</linearGradient>
</defs>
</svg>
