<svg width="26" height="26" viewBox="0 0 26 26" fill="none" xmlns="http://www.w3.org/2000/svg">
<path d="M25.0061 10.1117L17.1177 2.22224C16.1414 1.24879 14.8189 0.702148 13.4402 0.702148C12.0615 0.702148 10.7391 1.24879 9.76278 2.22224L1.87438 10.1117C1.58362 10.4006 1.3531 10.7443 1.19618 11.123C1.03926 11.5016 0.959054 11.9076 0.960221 12.3175V22.5272C0.960221 23.3547 1.28893 24.1483 1.87405 24.7334C2.45916 25.3185 3.25275 25.6472 4.08022 25.6472H22.8002C23.6277 25.6472 24.4213 25.3185 25.0064 24.7334C25.5915 24.1483 25.9202 23.3547 25.9202 22.5272V12.3175C25.9214 11.9076 25.8412 11.5016 25.6843 11.123C25.5273 10.7443 25.2968 10.4006 25.0061 10.1117ZM16.5602 23.5672H10.3202V19.4758C10.3202 18.6484 10.6489 17.8548 11.234 17.2697C11.8192 16.6846 12.6127 16.3558 13.4402 16.3558C14.2677 16.3558 15.0613 16.6846 15.6464 17.2697C16.2315 17.8548 16.5602 18.6484 16.5602 19.4758V23.5672ZM23.8402 22.5272C23.8402 22.803 23.7307 23.0676 23.5356 23.2626C23.3406 23.4576 23.076 23.5672 22.8002 23.5672H18.6402V19.4758C18.6402 18.0967 18.0924 16.7741 17.1172 15.7989C16.142 14.8237 14.8193 14.2758 13.4402 14.2758C12.0611 14.2758 10.7385 14.8237 9.76327 15.7989C8.78808 16.7741 8.24022 18.0967 8.24022 19.4758V23.5672H4.08022C3.8044 23.5672 3.53987 23.4576 3.34483 23.2626C3.14979 23.0676 3.04022 22.803 3.04022 22.5272V12.3175C3.04119 12.0419 3.15066 11.7777 3.34494 11.5822L11.2333 3.69592C11.8196 3.11241 12.6131 2.78482 13.4402 2.78482C14.2674 2.78482 15.0609 3.11241 15.6471 3.69592L23.5355 11.5854C23.729 11.7801 23.8384 12.043 23.8402 12.3175V22.5272Z" fill="#EAEAE5"/>
</svg>
